<svg width="17" height="15" viewBox="0 0 17 15" fill="none" xmlns="http://www.w3.org/2000/svg">
<path d="M17 13.8C17 14.19 16.86 14.4875 16.58 14.6925C16.2999 14.8975 15.9563 15 15.549 15H1.45103C1.04373 15 0.70006 14.895 0.420036 14.685C0.140012 14.475 0 14.18 0 13.8C0 13.5 0.0916442 13.195 0.274933 12.885L7.31626 0.825C7.65229 0.275 8.04942 0 8.50764 0C8.96586 0 9.3528 0.275 9.66846 0.825L16.7251 12.9C16.9084 13.22 17 13.52 17 13.8ZM9.56155 6.135V3.945H7.43845V6.135C7.43845 6.275 7.44864 6.4075 7.469 6.5325C7.48937 6.6575 7.51737 6.7975 7.55301 6.9525C7.58865 7.1075 7.61665 7.24 7.63702 7.35L8.03414 9.78H8.93531L9.34771 7.35C9.36807 7.25 9.39862 7.12 9.43935 6.96C9.48008 6.8 9.51063 6.6575 9.531 6.5325C9.55136 6.4075 9.56155 6.275 9.56155 6.135ZM9.56155 11.94C9.56155 11.65 9.45717 11.405 9.24843 11.205C9.03968 11.005 8.78766 10.905 8.49236 10.905C8.20725 10.905 7.96032 11.005 7.75157 11.205C7.54283 11.405 7.43845 11.65 7.43845 11.94C7.43845 12.23 7.54283 12.4775 7.75157 12.6825C7.96032 12.8875 8.20725 12.99 8.49236 12.99C8.78766 12.99 9.03968 12.8875 9.24843 12.6825C9.45717 12.4775 9.56155 12.23 9.56155 11.94Z" fill="#0A1C27"/>
</svg>
