<svg width="25" height="25" viewBox="0 0 25 25" fill="none" xmlns="http://www.w3.org/2000/svg">
<path d="M11.8303 6.80078H13.1743L12.9343 14.6408H12.0543L11.8303 6.80078ZM12.5023 18.0808C12.2676 18.0808 12.065 18.0008 11.8943 17.8408C11.7343 17.6701 11.6543 17.4728 11.6543 17.2488C11.6543 17.0141 11.7343 16.8221 11.8943 16.6728C12.0543 16.5128 12.257 16.4328 12.5023 16.4328C12.737 16.4328 12.9343 16.5128 13.0943 16.6728C13.2543 16.8221 13.3343 17.0141 13.3343 17.2488C13.3343 17.4728 13.2543 17.6701 13.0943 17.8408C12.9343 18.0008 12.737 18.0808 12.5023 18.0808Z" fill="#D2374A"/>
<rect x="1" y="1" width="23" height="23" rx="11.5" stroke="#D2374A" stroke-width="2"/>
</svg>
