<svg width="25" height="25" viewBox="0 0 25 25" fill="none" xmlns="http://www.w3.org/2000/svg">
<path fill-rule="evenodd" clip-rule="evenodd" d="M25 23.6202C25 24.3822 24.3821 25 23.6202 25H15.9672V16.3546H18.9616L19.4099 12.7438H15.9672V10.4383C15.9672 9.39281 16.2468 8.68035 17.6902 8.68035L19.5312 8.67951V5.44996C19.2127 5.40594 18.1199 5.30762 16.8486 5.30762C14.1942 5.30762 12.3771 6.99039 12.3771 10.0808V12.7438H9.375V16.3546H12.3771V25H1.37979C0.617578 25 0 24.3822 0 23.6202V1.37978C0 0.617673 0.617578 0 1.37979 0H23.6202C24.3821 0 25 0.617673 25 1.37978V23.6202Z" fill="#D2374A"/>
</svg>
