<svg width="25" height="25" viewBox="0 0 25 25" fill="none" xmlns="http://www.w3.org/2000/svg">
<path fill-rule="evenodd" clip-rule="evenodd" d="M25 23.6202C25 24.3822 24.3821 25 23.6202 25H1.37979C0.617578 25 0 24.3822 0 23.6202V1.37978C0 0.617673 0.617578 0 1.37979 0H23.6202C24.3821 0 25 0.617673 25 1.37978V23.6202ZM16.07 4H8.93C7.62248 4 6.36852 4.51941 5.44396 5.44396C4.51941 6.36852 4 7.62248 4 8.93V16.07C4 18.79 6.21 21 8.93 21H16.07C17.3775 21 18.6315 20.4806 19.556 19.556C20.4806 18.6315 21 17.3775 21 16.07V8.93C21 6.21 18.79 4 16.07 4ZM6.59625 6.59625C7.17011 6.02239 7.94844 5.7 8.76 5.7H16.24C17.9315 5.7 19.3 7.0685 19.3 8.76V16.24C19.3 17.0516 18.9776 17.8299 18.4037 18.4037C17.8299 18.9776 17.0516 19.3 16.24 19.3H8.76C7.0685 19.3 5.7 17.9315 5.7 16.24V8.76C5.7 7.94844 6.02239 7.17011 6.59625 6.59625ZM17.7138 7.2862C17.5145 7.08694 17.2443 6.975 16.9625 6.975C16.6807 6.975 16.4105 7.08694 16.2112 7.2862C16.0119 7.48546 15.9 7.75571 15.9 8.0375C15.9 8.31929 16.0119 8.58954 16.2112 8.7888C16.4105 8.98806 16.6807 9.1 16.9625 9.1C17.2443 9.1 17.5145 8.98806 17.7138 8.7888C17.9131 8.58954 18.025 8.31929 18.025 8.0375C18.025 7.75571 17.9131 7.48546 17.7138 7.2862ZM15.5052 9.4948C14.7082 8.69777 13.6272 8.25 12.5 8.25C11.3728 8.25 10.2918 8.69777 9.4948 9.4948C8.69777 10.2918 8.25 11.3728 8.25 12.5C8.25 13.6272 8.69777 14.7082 9.4948 15.5052C10.2918 16.3022 11.3728 16.75 12.5 16.75C13.6272 16.75 14.7082 16.3022 15.5052 15.5052C16.3022 14.7082 16.75 13.6272 16.75 12.5C16.75 11.3728 16.3022 10.2918 15.5052 9.4948ZM10.6969 10.6969C11.1751 10.2187 11.8237 9.95 12.5 9.95C13.1763 9.95 13.8249 10.2187 14.3031 10.6969C14.7813 11.1751 15.05 11.8237 15.05 12.5C15.05 13.1763 14.7813 13.8249 14.3031 14.3031C13.8249 14.7813 13.1763 15.05 12.5 15.05C11.8237 15.05 11.1751 14.7813 10.6969 14.3031C10.2187 13.8249 9.95 13.1763 9.95 12.5C9.95 11.8237 10.2187 11.1751 10.6969 10.6969Z" fill="#D2374A"/>
</svg>
