<svg width="30" height="30" viewBox="0 0 30 30" fill="none" xmlns="http://www.w3.org/2000/svg">
<rect x="5.68945" y="5.6875" width="18.6207" height="18.6207" rx="5" fill="white"/>
<path d="M25.9659 3.62109H4.55213C4.03715 3.62109 3.62109 4.03715 3.62109 4.55213V25.9659C3.62109 26.4809 4.03715 26.897 4.55213 26.897H25.9659C26.4809 26.897 26.897 26.4809 26.897 25.9659V4.55213C26.897 4.03715 26.4809 3.62109 25.9659 3.62109ZM19.0326 15.5151L13.2311 20.0771C13.0158 20.2459 12.6987 20.0946 12.6987 19.8211V10.6999C12.6987 10.4264 13.0158 10.2722 13.2311 10.4438L19.0326 15.003C19.0714 15.0335 19.1027 15.0724 19.1242 15.1167C19.1457 15.1611 19.1569 15.2097 19.1569 15.259C19.1569 15.3083 19.1457 15.357 19.1242 15.4013C19.1027 15.4457 19.0714 15.4846 19.0326 15.5151Z" fill="#D2374A"/>
</svg>
