<svg width="9" height="16" viewBox="0 0 9 16" fill="none" xmlns="http://www.w3.org/2000/svg">
<path d="M1.99981 15.0019C1.76615 15.0024 1.53972 14.921 1.35981 14.7719C1.25855 14.6879 1.17485 14.5848 1.11349 14.4685C1.05214 14.3521 1.01435 14.2248 1.00227 14.0939C0.990194 13.9629 1.00408 13.8308 1.04312 13.7052C1.08217 13.5796 1.1456 13.4629 1.22981 13.3619L5.70981 8.00189L1.38981 2.63189C1.30674 2.52961 1.24471 2.41191 1.20728 2.28557C1.16985 2.15923 1.15775 2.02674 1.17169 1.89571C1.18563 1.76468 1.22533 1.6377 1.2885 1.52206C1.35168 1.40643 1.43708 1.30442 1.53981 1.22189C1.64327 1.13086 1.76444 1.06219 1.8957 1.0202C2.02696 0.978212 2.16549 0.963808 2.30258 0.977893C2.43967 0.991978 2.57238 1.03425 2.69236 1.10205C2.81234 1.16985 2.91701 1.26172 2.99981 1.37189L7.82981 7.37189C7.97689 7.55083 8.05729 7.77527 8.05729 8.00689C8.05729 8.23852 7.97689 8.46296 7.82981 8.64189L2.82981 14.6419C2.72949 14.7629 2.60206 14.8586 2.45785 14.9211C2.31364 14.9837 2.15671 15.0113 1.99981 15.0019Z" fill="white"/>
</svg>
