<svg width="25" height="25" viewBox="0 0 25 25" fill="none" xmlns="http://www.w3.org/2000/svg">
<path fill-rule="evenodd" clip-rule="evenodd" d="M25 23.6202C25 24.3822 24.3821 25 23.6202 25H1.37979C0.617578 25 0 24.3822 0 23.6202V1.37978C0 0.617673 0.617578 0 1.37979 0H23.6202C24.3821 0 25 0.617673 25 1.37978V23.6202ZM2.93461 11.9474L20.6646 5.11037C21.4736 4.74437 22.2556 5.30538 21.9466 6.54437L18.9276 20.7724C18.7166 21.7844 18.1076 22.0244 17.2596 21.5574L12.6606 18.1604L10.4496 20.3104C10.4414 20.3183 10.4332 20.3263 10.425 20.3342C10.1784 20.5727 9.97389 20.7704 9.52861 20.7704L9.84261 16.0784L9.84061 16.0774H9.84261L18.3756 8.37637C18.7496 8.04437 18.2946 7.88137 17.7966 8.18437L7.26461 14.8294L2.71261 13.4094C1.73161 13.1084 1.72461 12.4334 2.93461 11.9474Z" fill="#D2374A"/>
</svg>
