<svg width="50" height="50" viewBox="0 0 50 50" fill="none" xmlns="http://www.w3.org/2000/svg">
<path d="M42.1875 15.625H32.8125C31.5697 15.6262 30.3781 16.1205 29.4993 16.9993C28.6205 17.8781 28.1262 19.0697 28.125 20.3125V29.6875C28.1258 30.5161 28.4553 31.3104 29.0412 31.8963C29.6271 32.4822 30.4215 32.8117 31.25 32.8125V43.75C31.2508 44.5786 31.5803 45.3729 32.1662 45.9588C32.7521 46.5447 33.5465 46.8742 34.375 46.875H40.625C41.4535 46.8742 42.2479 46.5447 42.8338 45.9588C43.4197 45.3729 43.7492 44.5786 43.75 43.75V32.8125C44.5785 32.8117 45.3729 32.4822 45.9588 31.8963C46.5447 31.3104 46.8742 30.5161 46.875 29.6875V20.3125C46.8738 19.0697 46.3795 17.8781 45.5007 16.9993C44.6219 16.1205 43.4303 15.6262 42.1875 15.625ZM43.75 29.6875H40.625V43.75H34.375V29.6875H31.25V20.3125C31.25 19.8981 31.4146 19.5007 31.7076 19.2076C32.0007 18.9146 32.3981 18.75 32.8125 18.75H42.1875C42.6019 18.75 42.9993 18.9146 43.2924 19.2076C43.5854 19.5007 43.75 19.8981 43.75 20.3125V29.6875ZM31.25 7.8125C31.25 6.57637 31.6166 5.368 32.3033 4.34019C32.9901 3.31238 33.9662 2.5113 35.1082 2.03826C36.2503 1.56521 37.5069 1.44144 38.7193 1.68259C39.9317 1.92375 41.0453 2.51901 41.9194 3.39309C42.7935 4.26716 43.3888 5.38081 43.6299 6.59319C43.8711 7.80557 43.7473 9.06224 43.2742 10.2043C42.8012 11.3463 42.0001 12.3224 40.9723 13.0092C39.9445 13.6959 38.7361 14.0625 37.5 14.0625C35.8429 14.0608 34.2542 13.4018 33.0824 12.2301C31.9107 11.0583 31.2517 9.4696 31.25 7.8125ZM34.375 7.8125C34.375 8.43057 34.5583 9.03476 34.9017 9.54866C35.245 10.0626 35.7331 10.4631 36.3041 10.6996C36.8751 10.9362 37.5035 10.998 38.1097 10.8775C38.7158 10.7569 39.2727 10.4593 39.7097 10.0222C40.1467 9.58517 40.4444 9.02835 40.565 8.42216C40.6855 7.81597 40.6236 7.18764 40.3871 6.61662C40.1506 6.0456 39.7501 5.55754 39.2362 5.21416C38.7223 4.87078 38.1181 4.6875 37.5 4.6875C36.6715 4.68833 35.8771 5.01784 35.2912 5.60371C34.7053 6.18958 34.3758 6.98396 34.375 7.8125ZM21.875 25V20.3125C21.8738 19.0697 21.3795 17.8781 20.5007 16.9993C19.6219 16.1205 18.4303 15.6262 17.1875 15.625H7.8125C6.56968 15.6262 5.37812 16.1205 4.49931 16.9993C3.6205 17.8781 3.12624 19.0697 3.125 20.3125V25H0V28.125H25V25H21.875ZM6.25 20.3125C6.25 19.8981 6.41462 19.5007 6.70765 19.2076C7.00067 18.9146 7.3981 18.75 7.8125 18.75H17.1875C17.6019 18.75 17.9993 18.9146 18.2924 19.2076C18.5854 19.5007 18.75 19.8981 18.75 20.3125V25H6.25V20.3125ZM6.25 7.8125C6.25 6.57637 6.61656 5.368 7.30331 4.34019C7.99007 3.31238 8.96619 2.5113 10.1082 2.03826C11.2503 1.56521 12.5069 1.44144 13.7193 1.68259C14.9317 1.92375 16.0453 2.51901 16.9194 3.39309C17.7935 4.26716 18.3888 5.38081 18.6299 6.59319C18.8711 7.80557 18.7473 9.06224 18.2742 10.2043C17.8012 11.3463 17.0001 12.3224 15.9723 13.0092C14.9445 13.6959 13.7361 14.0625 12.5 14.0625C10.8429 14.0608 9.25415 13.4018 8.08241 12.2301C6.91067 11.0583 6.25165 9.4696 6.25 7.8125ZM9.375 7.8125C9.375 8.43057 9.55828 9.03476 9.90166 9.54866C10.245 10.0626 10.7331 10.4631 11.3041 10.6996C11.8751 10.9362 12.5035 10.998 13.1097 10.8775C13.7158 10.7569 14.2727 10.4593 14.7097 10.0222C15.1467 9.58517 15.4444 9.02835 15.565 8.42216C15.6855 7.81597 15.6236 7.18764 15.3871 6.61662C15.1506 6.0456 14.7501 5.55754 14.2362 5.21416C13.7223 4.87078 13.1181 4.6875 12.5 4.6875C11.6715 4.68833 10.8771 5.01784 10.2912 5.60371C9.70533 6.18958 9.37583 6.98396 9.375 7.8125Z" fill="#0A1C27"/>
</svg>
