<svg width="47" height="54" viewBox="0 0 47 54" fill="none" xmlns="http://www.w3.org/2000/svg">
<path d="M32.3571 27.9074L30.8571 27.9067V27.9074H32.3571ZM2 17.625L0.5 17.6162V17.625H2ZM6.91071 12.7143V11.2143L6.90193 11.2143L6.91071 12.7143ZM17.4152 12.7143L17.4175 11.2143H17.4152V12.7143ZM19.3672 13.5357L18.2963 14.586L18.2977 14.5874L19.3672 13.5357ZM31.5491 25.9241L32.6216 24.8754L32.6186 24.8724L31.5491 25.9241ZM18.6786 12.7143C18.6786 11.8859 18.007 11.2143 17.1786 11.2143C16.3501 11.2143 15.6786 11.8859 15.6786 12.7143H18.6786ZM17.1786 24.7679H15.6786C15.6786 24.7738 15.6786 24.7798 15.6787 24.7857L17.1786 24.7679ZM20.3036 27.8929L20.2857 29.3927C20.2916 29.3928 20.2976 29.3929 20.3036 29.3929V27.8929ZM32.3571 29.3929C33.1856 29.3929 33.8571 28.7213 33.8571 27.8929C33.8571 27.0644 33.1856 26.3929 32.3571 26.3929V29.3929ZM14.5 6.91071L13 6.90193V6.91071H14.5ZM19.4107 2V0.499974L19.4019 0.500026L19.4107 2ZM29.9018 2L29.9039 0.5H29.9018V2ZM31.8672 2.82143L32.9367 1.76971L32.9331 1.76605L31.8672 2.82143ZM44.0491 15.2098L42.9796 16.2615L42.9819 16.2639L44.0491 15.2098ZM31.1786 2C31.1786 1.17157 30.507 0.5 29.6786 0.5C28.8501 0.5 28.1786 1.17157 28.1786 2H31.1786ZM29.6786 14.0536H28.1786C28.1786 14.0595 28.1786 14.0655 28.1787 14.0715L29.6786 14.0536ZM32.8036 17.1786L32.7857 18.6785C32.7916 18.6785 32.7976 18.6786 32.8036 18.6786V17.1786ZM30.8571 27.9074V47.0893H33.8571V27.9074H30.8571ZM30.8571 47.0893C30.8571 49.0114 29.3646 50.5 27.5636 50.5V53.5C31.0974 53.5 33.8571 50.5913 33.8571 47.0893H30.8571ZM27.5636 50.5H6.79911V53.5H27.5636V50.5ZM6.79911 50.5C4.99141 50.5 3.5 49.0103 3.5 47.0893H0.5C0.5 50.5924 3.26082 53.5 6.79911 53.5V50.5ZM3.5 47.0893V17.625H0.5V47.0893H3.5ZM3.49997 17.6338C3.50528 16.7285 3.86725 15.8618 4.50739 15.2217L2.38607 13.1004C1.18762 14.2988 0.509953 15.9214 0.500026 17.6162L3.49997 17.6338ZM4.50739 15.2217C5.14753 14.5815 6.01422 14.2196 6.9195 14.2143L6.90193 11.2143C5.2071 11.2242 3.58451 11.9019 2.38607 13.1004L4.50739 15.2217ZM6.91071 14.2143H17.4152V11.2143H6.91071V14.2143ZM17.4129 14.2143C17.5774 14.2145 17.7403 14.2475 17.892 14.3114L19.0556 11.5462C18.537 11.328 17.9801 11.2151 17.4175 11.2143L17.4129 14.2143ZM17.892 14.3114C18.0436 14.3752 18.1811 14.4685 18.2963 14.586L20.4381 12.4854C20.0441 12.0837 19.5742 11.7644 19.0556 11.5462L17.892 14.3114ZM18.2977 14.5874L30.4796 26.9758L32.6186 24.8724L20.4367 12.484L18.2977 14.5874ZM30.4767 26.9729C30.7207 27.2224 30.8573 27.5576 30.8571 27.9067L33.8571 27.908C33.8576 26.7745 33.4141 25.6858 32.6215 24.8754L30.4767 26.9729ZM15.6786 12.7143V24.7679H18.6786V12.7143H15.6786ZM15.6787 24.7857C15.6932 26.0031 16.1832 27.1665 17.0441 28.0273L19.1654 25.906C18.8584 25.599 18.6836 25.1841 18.6785 24.75L15.6787 24.7857ZM17.0441 28.0273C17.9049 28.8882 19.0683 29.3782 20.2857 29.3927L20.3215 26.393C19.8873 26.3878 19.4724 26.213 19.1654 25.906L17.0441 28.0273ZM20.3036 29.3929H32.3571V26.3929H20.3036V29.3929ZM16 12.7143V6.91071H13V12.7143H16ZM16 6.9195C16.0053 6.01422 16.3672 5.14753 17.0074 4.50739L14.8861 2.38607C13.6876 3.58451 13.01 5.2071 13 6.90193L16 6.9195ZM17.0074 4.50739C17.6475 3.86725 18.5142 3.50528 19.4195 3.49997L19.4019 0.500026C17.7071 0.509953 16.0845 1.18762 14.8861 2.38607L17.0074 4.50739ZM19.4107 3.5H29.9018V0.5H19.4107V3.5ZM29.8997 3.5C30.0674 3.50023 30.2334 3.53365 30.3881 3.59832L31.545 0.830342C31.0251 0.613054 30.4673 0.500785 29.9039 0.500001L29.8997 3.5ZM30.3881 3.59832C30.5429 3.66298 30.6833 3.75763 30.8013 3.8768L32.9331 1.76605C32.5367 1.36564 32.0649 1.04763 31.545 0.830342L30.3881 3.59832ZM30.7976 3.87314L42.9796 16.2615L45.1186 14.1581L32.9367 1.76972L30.7976 3.87314ZM42.9819 16.2639C43.2224 16.5074 43.3573 16.8359 43.3571 17.1781L46.3571 17.1791C46.3575 16.0472 45.9116 14.9609 45.1163 14.1557L42.9819 16.2639ZM43.3571 17.1786V36.375H46.3571V17.1786H43.3571ZM43.3571 36.375C43.3571 38.2971 41.8646 39.7857 40.0636 39.7857V42.7857C43.5974 42.7857 46.3571 39.877 46.3571 36.375H43.3571ZM40.0636 39.7857H33.25V42.7857H40.0636V39.7857ZM28.1786 2V14.0536H31.1786V2H28.1786ZM28.1787 14.0715C28.1932 15.2888 28.6832 16.4522 29.5441 17.3131L31.6654 15.1917C31.3584 14.8847 31.1836 14.4698 31.1785 14.0357L28.1787 14.0715ZM29.5441 17.3131C30.4049 18.1739 31.5683 18.6639 32.7857 18.6785L32.8215 15.6787C32.3873 15.6735 31.9724 15.4987 31.6654 15.1917L29.5441 17.3131ZM32.8036 18.6786H44.8571V15.6786H32.8036V18.6786Z" fill="#0A1C27"/>
</svg>
