<svg width="162" height="46" viewBox="0 0 162 46" fill="none" xmlns="http://www.w3.org/2000/svg">
<g clip-path="url(#clip0_3772_16782)">
<path d="M115.999 11.6602V45.7437H150.282V11.6602H115.999ZM140.84 36.3544H125.441V21.0424H140.84V36.3544Z" fill="#D2374A"/>
<path d="M33.2447 11.7188C28.9495 11.7188 26.4941 14.1746 26.4941 18.1254C26.4941 22.0762 28.9138 24.5321 33.2447 24.5321C37.5757 24.5321 40.024 22.0477 40.024 18.1254C40.024 14.0465 37.5041 11.7188 33.2447 11.7188ZM33.2447 21.2647C31.7343 21.2647 30.5889 20.4176 30.5889 18.1397C30.5889 15.8618 31.7343 15.0218 33.2447 15.0218C34.7552 15.0218 35.9292 15.8689 35.9292 18.1397C35.9292 20.4105 34.7624 21.2505 33.2447 21.2505V21.2647Z" fill="white"/>
<path d="M45.887 15.2272C46.3966 15.1534 46.9111 15.1177 47.4261 15.1204C48.453 15.0976 49.4791 15.1955 50.4829 15.4123V12.0523C48.7303 11.6525 46.9157 11.5993 45.1425 11.8957C43.9971 12.031 41.6562 12.3442 41.6562 12.3442V24.1895H45.887V15.2272Z" fill="white"/>
<path d="M56.3597 21.0428L57.5408 19.8469L61.4638 24.1892H66.2959L60.1609 17.3412L65.4941 12.0379H60.4544L56.3597 16.1239V8.05859H52.1289V24.1892H56.3597V21.0428Z" fill="white"/>
<path d="M79.0031 17.3495C79.0031 14.6516 77.2708 11.7188 72.8539 11.7188C69.5323 11.7188 66.3467 13.4628 66.3467 18.1254C66.3467 22.4606 69.8759 24.5321 73.6556 24.5321C75.1143 24.5249 76.5707 24.4203 78.0153 24.2189V21.101C76.9773 21.2731 75.9305 21.3871 74.8798 21.4427C72.8539 21.4427 70.8924 21.3857 70.4915 19.3071H78.7884C78.9342 18.6648 79.0062 18.008 79.0031 17.3495ZM70.5202 16.8228C70.5202 16.8228 70.6204 14.8865 72.9398 14.8865C75.2592 14.8865 75.3021 16.8228 75.3021 16.8228H70.5202Z" fill="white"/>
<path d="M85.4817 15.2272C85.9914 15.1534 86.5058 15.1177 87.0208 15.1204C88.0478 15.0976 89.0738 15.1955 90.0776 15.4123V12.0523C88.325 11.6525 86.5105 11.5993 84.7372 11.8957C83.5918 12.031 81.251 12.3442 81.251 12.3442V24.1895H85.4817V15.2272Z" fill="white"/>
<path d="M102.576 20.6217C102.576 16.5997 96.1334 16.3506 96.1334 15.176C96.1334 13.7523 100.894 14.9625 101.316 15.0408V12.051C100.013 11.7867 98.6872 11.6531 97.3575 11.6523C94.673 11.7022 91.8525 12.5778 91.8525 15.3825C91.8525 19.2692 98.8465 19.0556 98.2953 20.8851C97.8443 22.3657 91.8096 20.6502 91.8096 20.6502V23.7966C93.3288 24.2515 94.9048 24.4911 96.4913 24.5084C99.0899 24.4799 102.576 23.7396 102.576 20.6217Z" fill="white"/>
<path d="M5.69112 29.2344C3.77057 29.2525 1.85943 29.5035 0 29.9818V45.6853H4.43835V41.1793C5.22215 41.2983 6.01646 41.334 6.80787 41.2861C10.3442 41.2078 13.9665 39.9407 13.9665 35.4417C13.9593 30.6154 9.83597 29.2344 5.69112 29.2344ZM6.40698 37.6983C5.74893 37.6909 5.09176 37.6481 4.43835 37.5702V33.1496C5.06857 33.0165 5.71327 32.9639 6.35687 32.993C7.92461 32.993 9.67848 33.5197 9.67848 35.3706C9.67848 37.2214 7.97472 37.6698 6.40698 37.6983Z" fill="white"/>
<path d="M19.9436 28.4961H15.7129V45.6802H19.9436V28.4961Z" fill="white"/>
<path d="M29.1213 33.2075C27.2745 33.1987 25.4288 33.3033 23.5949 33.5208V36.5604C24.8985 36.3661 26.214 36.2615 27.5321 36.2472C28.7777 36.2472 29.3361 36.6173 29.3361 37.6709V38.0909C27.1885 37.7207 21.6764 37.6424 21.6764 41.7996C21.6262 45.2308 24.8405 46.0708 28.4842 45.9497C30.1911 45.8865 31.8904 45.6914 33.5669 45.366V38.1763C33.5883 34.0618 31.7271 33.3143 29.1213 33.2075ZM29.3361 43.0952C28.0332 43.2803 25.721 43.5437 25.721 41.9064C25.721 40.1552 28.1907 40.4471 29.3361 40.6322V43.0952Z" fill="white"/>
<path d="M50.3113 32.9364C50.3113 31.9825 50.7121 31.1923 52.33 31.1923C53.208 31.2176 54.0811 31.3321 54.9357 31.534V28.3662C53.8082 28.1284 52.6594 28.0044 51.5067 27.9961C46.825 27.9961 46.0805 31.2493 46.0805 33.1784V33.4987H39.7809V30.2883H35.5645V40.9661C35.5645 43.002 36.5237 46.0416 41.2914 45.949C42.3377 45.9297 43.38 45.8153 44.4054 45.6074V42.3827C43.2989 42.6866 42.1411 42.7593 41.005 42.5962C40.818 42.5676 40.6385 42.5025 40.477 42.4045C40.3155 42.3066 40.1751 42.1778 40.0639 42.0255C39.9527 41.8733 39.873 41.7006 39.8293 41.5175C39.7857 41.3345 39.7789 41.1446 39.8095 40.9589V36.9085H46.1091V45.7141H50.3399V36.9085H54.3058V33.5485H50.3113V32.9364Z" fill="white"/>
<path d="M61.6933 33.207C57.3552 33.207 54.9355 35.6629 54.9355 39.6137C54.9355 43.5645 57.3552 46.0204 61.6933 46.0204C66.0314 46.0204 68.4725 43.536 68.4725 39.6137C68.494 35.5277 65.9455 33.207 61.6933 33.207ZM61.6933 42.7459C60.1757 42.7459 59.0303 41.9059 59.0303 39.628C59.0303 37.35 60.1757 36.51 61.6933 36.51C63.2109 36.51 64.3778 37.3572 64.3778 39.628C64.3778 41.8988 63.2038 42.7459 61.6933 42.7459Z" fill="white"/>
<path d="M73.6552 33.3496C72.5098 33.4849 70.1689 33.7981 70.1689 33.7981V45.6433H74.3997V36.7167C74.9093 36.6428 75.4238 36.6071 75.9388 36.6099C76.9657 36.5871 77.9918 36.685 78.9955 36.9017V33.5418C77.2453 33.1304 75.4308 33.0651 73.6552 33.3496Z" fill="white"/>
<path d="M103.056 39.6215V41.4723H98.8319V39.5147C98.8319 36.4751 97.0208 36.4751 95.9685 36.4751C95.2182 36.489 94.4707 36.57 93.735 36.7171C94.0133 37.6594 94.1389 38.6398 94.1072 39.6215V45.6793H89.9695V39.5147C89.9695 36.4751 88.1584 36.4751 87.149 36.4751C86.5875 36.4907 86.0278 36.5454 85.4739 36.6388V45.6793H81.2432V33.7771C82.4172 33.649 84.5719 33.3571 85.9249 33.2504C88.1584 33.0938 90.2201 33.1436 91.6948 33.9622C93.4416 33.5032 95.2361 33.2476 97.0423 33.2005C100.607 33.2005 103.056 34.5175 103.056 39.6215Z" fill="white"/>
<path d="M107.286 41.4805H103.056V45.6875H107.286V41.4805Z" fill="white"/>
<path d="M162.007 0H150.281V11.6602H162.007V0Z" fill="#D2374A"/>
<path d="M21.7766 8.05859L18.7628 20.3238L15.57 8.05859H10.9312L7.75997 20.3238L4.78197 8.05859H0L4.20212 24.5095H10.8453L13.2363 14.5436L15.3839 24.5095H22.2705L26.4726 8.05859H21.7766Z" fill="white"/>
</g>
<defs>
<clipPath id="clip0_3772_16782">
<rect width="162" height="46" fill="white"/>
</clipPath>
</defs>
</svg>
