<svg width="222" height="444" viewBox="0 0 222 444" fill="none" xmlns="http://www.w3.org/2000/svg">
<path d="M171 388.072V421.363H205.442V388.072H171ZM195.956 412.192H180.486V397.236H195.956V412.192Z" fill="white" fill-opacity="0.05"/>
<path d="M217.456 376.846H205.441V388.072H217.456V376.846Z" fill="white" fill-opacity="0.05"/>
<path d="M11.959 11.6504V44.941H46.4009V11.6504H11.959ZM36.9148 35.7701H21.4451V20.8144H36.9148V35.7701Z" fill="white" fill-opacity="0.05"/>
<path d="M58.415 0.423828H46.4004V11.6498H58.415V0.423828Z" fill="white" fill-opacity="0.05"/>
<path d="M125 172.996V206.287H159.442V172.996H125ZM149.956 197.116H134.486V182.16H149.956V197.116Z" fill="white" fill-opacity="0.05"/>
<path d="M171.456 161.77H159.441V172.995H171.456V161.77Z" fill="white" fill-opacity="0.05"/>
<path d="M174.545 25.2363V58.5267H208.987V25.2363H174.545ZM199.501 49.3559H184.031V34.4002H199.501V49.3559Z" fill="white" fill-opacity="0.05"/>
<path d="M221.001 14.0098H208.986V25.2357H221.001V14.0098Z" fill="white" fill-opacity="0.05"/>
<path d="M12 239.475V272.765H46.4419V239.475H12ZM36.9558 263.594H21.4861V248.639H36.9558V263.594Z" fill="white" fill-opacity="0.05"/>
<path d="M58.456 228.248H46.4414V239.474H58.456V228.248Z" fill="white" fill-opacity="0.05"/>
<path d="M0 410.559V443.849H34.4419V410.559H0ZM24.9558 434.678H9.48608V419.723H24.9558V434.678Z" fill="white" fill-opacity="0.05"/>
<path d="M46.456 399.332H34.4414V410.558H46.456V399.332Z" fill="white" fill-opacity="0.05"/>
</svg>
