<svg width="1643" height="356" viewBox="0 0 1643 356" fill="none" xmlns="http://www.w3.org/2000/svg">
<path d="M394 190.818V275.846H480V190.818H394ZM456.314 252.423H417.686V214.224H456.314V252.423Z" fill="white" fill-opacity="0.05"/>
<path d="M510 162.146H480V190.819H510V162.146Z" fill="white" fill-opacity="0.05"/>
<path d="M1146 38.5586V123.586H1232V38.5586H1146ZM1208.31 100.163H1169.69V61.9643H1208.31V100.163Z" fill="white" fill-opacity="0.05"/>
<path d="M1262 9.88672H1232V38.5591H1262V9.88672Z" fill="white" fill-opacity="0.05"/>
<path d="M1309 270.902V355.93H1395V270.902H1309ZM1371.31 332.507H1332.69V294.308H1371.31V332.507Z" fill="white" fill-opacity="0.05"/>
<path d="M1425 242.23H1395V270.903H1425V242.23Z" fill="white" fill-opacity="0.05"/>
<path d="M1527 63.2773V148.305H1613V63.2773H1527ZM1589.31 124.882H1550.69V86.683H1589.31V124.882Z" fill="white" fill-opacity="0.05"/>
<path d="M1643 34.6055H1613V63.2778H1643V34.6055Z" fill="white" fill-opacity="0.05"/>
<path d="M169 28.6719V113.7H255V28.6719H169ZM231.314 90.2764H192.686V52.0777H231.314V90.2764Z" fill="white" fill-opacity="0.05"/>
<path d="M285 0H255V28.6724H285V0Z" fill="white" fill-opacity="0.05"/>
<path d="M0 247.174V332.202H86V247.174H0ZM62.3136 308.778H23.6864V270.58H62.3136V308.778Z" fill="white" fill-opacity="0.05"/>
<path d="M116 218.502H86V247.174H116V218.502Z" fill="white" fill-opacity="0.05"/>
</svg>
