<svg width="312" height="601" viewBox="0 0 312 601" fill="none" xmlns="http://www.w3.org/2000/svg">
<path d="M265 346.482V380.535H299.442V346.482H265ZM289.956 371.154H274.486V355.856H289.956V371.154Z" fill="white" fill-opacity="0.05"/>
<path d="M311.456 335H299.441V346.483H311.456V335Z" fill="white" fill-opacity="0.05"/>
<path d="M51 34.4824V68.535H85.4419V34.4824H51ZM75.9558 59.1542H60.4861V43.8561H75.9558V59.1542Z" fill="white" fill-opacity="0.05"/>
<path d="M97.456 23H85.4414V34.4829H97.456V23Z" fill="white" fill-opacity="0.05"/>
<path d="M188 163.482V197.535H222.442V163.482H188ZM212.956 188.154H197.486V172.856H212.956V188.154Z" fill="white" fill-opacity="0.05"/>
<path d="M234.456 152H222.441V163.483H234.456V152Z" fill="white" fill-opacity="0.05"/>
<path d="M237.545 12.3418V46.3942H271.987V12.3418H237.545ZM262.501 37.0135H247.031V21.7155H262.501V37.0135Z" fill="white" fill-opacity="0.05"/>
<path d="M284.001 0.859375H271.986V12.3423H284.001V0.859375Z" fill="white" fill-opacity="0.05"/>
<path d="M0 235.482V269.535H34.4419V235.482H0ZM24.9558 260.154H9.48608V244.856H24.9558V260.154Z" fill="white" fill-opacity="0.05"/>
<path d="M46.456 224H34.4414V235.483H46.456V224Z" fill="white" fill-opacity="0.05"/>
<path d="M34 380.482V414.535H68.4419V380.482H34ZM58.9558 405.154H43.4861V389.856H58.9558V405.154Z" fill="white" fill-opacity="0.05"/>
<path d="M80.456 369H68.4414V380.483H80.456V369Z" fill="white" fill-opacity="0.05"/>
<path d="M34 566.484V600.537H68.4419V566.484H34ZM58.9558 591.156H43.4861V575.858H58.9558V591.156Z" fill="white" fill-opacity="0.05"/>
<path d="M80.456 555H68.4414V566.483H80.456V555Z" fill="white" fill-opacity="0.05"/>
</svg>
