<svg width="1643" height="397" viewBox="0 0 1643 397" fill="none" xmlns="http://www.w3.org/2000/svg">
<path d="M1286 29.5586V114.586H1372V29.5586H1286ZM1348.31 91.1629H1309.69V52.9643H1348.31V91.1629Z" fill="white" fill-opacity="0.05"/>
<path d="M1402 0.886719H1372V29.5591H1402V0.886719Z" fill="white" fill-opacity="0.05"/>
<path d="M1309 311.902V396.93H1395V311.902H1309ZM1371.31 373.507H1332.69V335.308H1371.31V373.507Z" fill="white" fill-opacity="0.05"/>
<path d="M1425 283.23H1395V311.903H1425V283.23Z" fill="white" fill-opacity="0.05"/>
<path d="M1527 104.277V189.305H1613V104.277H1527ZM1589.31 165.882H1550.69V127.683H1589.31V165.882Z" fill="white" fill-opacity="0.05"/>
<path d="M1643 75.6055H1613V104.278H1643V75.6055Z" fill="white" fill-opacity="0.05"/>
<path d="M234 241.818V326.846H320V241.818H234ZM296.314 303.423H257.686V265.224H296.314V303.423Z" fill="white" fill-opacity="0.05"/>
<path d="M350 213.146H320V241.819H350V213.146Z" fill="white" fill-opacity="0.05"/>
<path d="M169 69.6719V154.7H255V69.6719H169ZM231.314 131.276H192.686V93.0777H231.314V131.276Z" fill="white" fill-opacity="0.05"/>
<path d="M285 41H255V69.6724H285V41Z" fill="white" fill-opacity="0.05"/>
<path d="M0 288.174V373.202H86V288.174H0ZM62.3136 349.778H23.6864V311.58H62.3136V349.778Z" fill="white" fill-opacity="0.05"/>
<path d="M116 259.502H86V288.174H116V259.502Z" fill="white" fill-opacity="0.05"/>
</svg>
