<svg width="104" height="43" viewBox="0 0 104 43" fill="none" xmlns="http://www.w3.org/2000/svg">
<path d="M30.96 20.808C14.868 20.628 9.756 20.304 9.756 17.856C9.756 15.876 10.836 15.264 16.884 15.264H43.308C48.6 15.264 50.004 16.524 49.968 19.296H56.412C56.448 13.716 53.064 10.152 45.108 10.152H15.084C5.652 10.152 3.348 12.924 3.348 18.288C3.348 25.38 11.16 25.524 28.116 25.74C46.512 25.956 50.148 26.316 50.148 28.872C50.148 31.032 48.924 31.572 43.02 31.572H16.848C10.188 31.572 9.108 30.708 9.108 27.504H2.7C2.7 33.66 5.148 36.648 15.048 36.648H44.82C55.944 36.648 56.448 31.896 56.52 28.548C56.7 20.988 51.948 21.024 30.96 20.808ZM62.8031 36H68.5631V10.8H62.8031V36ZM75.7758 36H81.5358V29.844H84.2358C90.4998 29.844 94.3158 26.208 94.3158 20.232C94.3158 14.4 90.4998 10.8 84.2358 10.8H75.7758V36ZM81.5358 24.804V15.84H84.2358C86.7198 15.84 88.2318 17.532 88.2318 20.304C88.2318 23.112 86.7198 24.804 84.2358 24.804H81.5358Z" fill="white"/>
<circle cx="100.5" cy="33.5" r="3.5" fill="#F459A4"/>
</svg>
