<svg width="16" height="16" viewBox="0 0 16 16" fill="none" xmlns="http://www.w3.org/2000/svg">
<path d="M8.00016 1.33398C4.32016 1.33398 1.3335 4.32065 1.3335 8.00065C1.3335 11.6807 4.32016 14.6673 8.00016 14.6673C11.6802 14.6673 14.6668 11.6807 14.6668 8.00065C14.6668 4.32065 11.6802 1.33398 8.00016 1.33398ZM4.7135 12.1873C5.00016 11.5873 6.74683 11.0007 8.00016 11.0007C9.2535 11.0007 11.0068 11.5873 11.2868 12.1873C10.3802 12.9073 9.24016 13.334 8.00016 13.334C6.76016 13.334 5.62016 12.9073 4.7135 12.1873ZM12.2402 11.2207C11.2868 10.0607 8.9735 9.66732 8.00016 9.66732C7.02683 9.66732 4.7135 10.0607 3.76016 11.2207C3.05193 10.2965 2.6677 9.16494 2.66683 8.00065C2.66683 5.06065 5.06016 2.66732 8.00016 2.66732C10.9402 2.66732 13.3335 5.06065 13.3335 8.00065C13.3335 9.21398 12.9202 10.3273 12.2402 11.2207V11.2207ZM8.00016 4.00065C6.70683 4.00065 5.66683 5.04065 5.66683 6.33398C5.66683 7.62732 6.70683 8.66732 8.00016 8.66732C9.2935 8.66732 10.3335 7.62732 10.3335 6.33398C10.3335 5.04065 9.2935 4.00065 8.00016 4.00065ZM8.00016 7.33398C7.44683 7.33398 7.00016 6.88732 7.00016 6.33398C7.00016 5.78065 7.44683 5.33398 8.00016 5.33398C8.5535 5.33398 9.00016 5.78065 9.00016 6.33398C9.00016 6.88732 8.5535 7.33398 8.00016 7.33398Z" fill="#25222C"/>
</svg>
