<svg width="11" height="7" viewBox="0 0 11 7" fill="none" xmlns="http://www.w3.org/2000/svg">
<path d="M1.13407 3.88534C1.43283 4.1841 1.73159 4.48286 2.03035 4.78162C2.50709 5.25836 2.98225 5.73352 3.45899 6.21026C3.56864 6.31991 3.67829 6.42956 3.78635 6.53762C4.05968 6.81095 4.52371 6.81095 4.79705 6.53762C4.9655 6.36917 5.13236 6.20231 5.3008 6.03386C5.70604 5.62863 6.10968 5.22499 6.51491 4.81976C7.00278 4.33189 7.49064 3.84403 7.97851 3.35616C8.39963 2.93504 8.82234 2.51232 9.24347 2.0912C9.44847 1.8862 9.65664 1.68279 9.86005 1.47461C9.86323 1.47144 9.86641 1.46826 9.86959 1.46508C9.9999 1.33477 10.0794 1.14248 10.0794 0.959732C10.0794 0.784926 10.0015 0.57516 9.86959 0.454385C9.73292 0.328843 9.55494 0.236672 9.36424 0.244618C9.17513 0.252564 8.99556 0.317719 8.85889 0.454385C8.69045 0.622834 8.52359 0.789694 8.35514 0.958143C7.9499 1.36337 7.54626 1.76702 7.14103 2.17225C6.65316 2.66011 6.1653 3.14798 5.67743 3.63585C5.25631 4.05697 4.8336 4.47968 4.41247 4.9008C4.20747 5.1058 3.99771 5.30763 3.79589 5.51739C3.79271 5.52057 3.78953 5.52375 3.78635 5.52693C4.12325 5.52693 4.46015 5.52693 4.79705 5.52693C4.49829 5.22817 4.19953 4.92941 3.90077 4.63065C3.42403 4.15391 2.94887 3.67875 2.47213 3.20201C2.36248 3.09236 2.25283 2.98271 2.14477 2.87465C2.01446 2.74434 1.82217 2.66488 1.63942 2.66488C1.46461 2.66488 1.25485 2.74275 1.13407 2.87465C1.00853 3.01131 0.91636 3.1893 0.924305 3.38C0.932251 3.5691 0.997406 3.74868 1.13407 3.88534Z" fill="#5F6CFA"/>
</svg>
