<svg width="28" height="28" viewBox="0 0 28 28" fill="none" xmlns="http://www.w3.org/2000/svg">
<g opacity="0.4">
<path d="M13.9997 0C6.28014 0 0 6.28048 0 14.0003C0 21.7199 6.28048 28.0003 13.9997 28.0003C21.7195 28.0003 28 21.7199 28 14.0003C28 6.28048 21.7195 0 13.9997 0ZM14.559 25.7503V24.1557C14.559 23.8473 14.3087 23.597 13.9997 23.597C13.691 23.597 13.4407 23.8473 13.4407 24.1557V25.7506C7.39847 25.4663 2.53437 20.6029 2.25041 14.5597H3.84499C4.15368 14.5597 4.40399 14.3094 4.40399 14.0007C4.40399 13.692 4.15368 13.4417 3.84499 13.4417H2.25041C2.53472 7.39916 7.39847 2.5354 13.4407 2.2511V3.84568C13.4407 4.15437 13.691 4.40468 13.9997 4.40468C14.3083 4.40468 14.559 4.15437 14.559 3.84568V2.2511C20.6019 2.5354 25.4656 7.39916 25.7499 13.4417H24.155C23.8467 13.4417 23.596 13.692 23.596 14.0007C23.596 14.3094 23.8463 14.5597 24.155 14.5597H25.7499C25.4653 20.6026 20.6015 25.466 14.559 25.7503Z" fill="#474747"/>
<path d="M15.1172 13.535V8.5926C15.1172 7.97523 14.6166 7.47461 13.9989 7.47461C13.3815 7.47461 12.8809 7.97523 12.8809 8.5926V13.9985C12.8809 13.9992 12.8812 13.9999 12.8812 14.0006C12.8812 14.073 12.8888 14.1455 12.9028 14.2173C12.9097 14.2506 12.9217 14.2818 12.9313 14.3137C12.9423 14.3515 12.9512 14.3896 12.9664 14.426C12.9818 14.4634 13.0031 14.4974 13.0227 14.5332C13.0381 14.562 13.0508 14.5915 13.069 14.619C13.1099 14.6801 13.1562 14.7375 13.2081 14.7893L19.5545 21.135C19.7729 21.3534 20.0589 21.4626 20.3453 21.4626C20.6313 21.4626 20.9176 21.3534 21.136 21.135C21.5724 20.6986 21.5724 19.9906 21.136 19.5538L15.1172 13.535Z" fill="#474747"/>
</g>
</svg>
