<svg width="10" height="12" viewBox="0 0 10 12" fill="none" xmlns="http://www.w3.org/2000/svg">
<path d="M8.77625 2.91667C8.99675 2.69617 9.11808 2.40333 9.11808 2.09183C9.11808 1.78033 8.99675 1.4875 8.77625 1.267L7.85108 0.341833C7.63058 0.121333 7.33775 0 7.02625 0C6.71475 0 6.42192 0.121333 6.202 0.34125L0 6.524V9.09942H2.57425L8.77625 2.91667ZM7.02625 1.16667L7.952 2.09125L7.0245 3.01525L6.09933 2.09067L7.02625 1.16667ZM1.16667 7.93275V7.00817L5.27333 2.91433L6.1985 3.8395L2.09242 7.93275H1.16667ZM0 10.2661H9.33333V11.4327H0V10.2661Z" fill="#8B8A8E"/>
</svg>
