<svg width="20" height="15" viewBox="0 0 20 15" fill="none" xmlns="http://www.w3.org/2000/svg">
<mask id="mask0_4544_16890" style="mask-type:alpha" maskUnits="userSpaceOnUse" x="0" y="0" width="20" height="15">
<path d="M0 0H20V15H0V0Z" fill="white"/>
</mask>
<g mask="url(#mask0_4544_16890)">
<path fill-rule="evenodd" clip-rule="evenodd" d="M0 0V15H20V0H0Z" fill="#2E42A5"/>
<mask id="mask1_4544_16890" style="mask-type:alpha" maskUnits="userSpaceOnUse" x="0" y="0" width="20" height="15">
<path fill-rule="evenodd" clip-rule="evenodd" d="M0 0V15H20V0H0Z" fill="white"/>
</mask>
<g mask="url(#mask1_4544_16890)">
<mask id="mask2_4544_16890" style="mask-type:alpha" maskUnits="userSpaceOnUse" x="0" y="0" width="20" height="15">
<path d="M0 0H20V15H0V0Z" fill="white"/>
</mask>
<g mask="url(#mask2_4544_16890)">
<path d="M-2.22656 13.9292L2.17406 15.7911L20.1003 2.02484L22.4216 -0.741406L17.7153 -1.36328L10.4041 4.56859L4.51906 8.56609L-2.22656 13.9292Z" fill="white"/>
<path d="M-1.625 15.2319L0.618125 16.3119L21.5875 -1H18.4394L-1.62438 15.2312L-1.625 15.2319Z" fill="#F50100"/>
<path d="M22.2272 13.9292L17.826 15.7911L-0.0990233 2.02484L-2.4209 -0.741406L2.28535 -1.36328L9.5966 4.56859L15.4816 8.56609L22.2272 13.9292Z" fill="white"/>
<path d="M22.0773 14.867L19.8348 15.947L10.9061 8.53453L8.25859 7.70703L-2.64453 -0.730469H0.504219L11.4005 7.50703L14.2948 8.49953L22.0773 14.867Z" fill="#F50100"/>
<mask id="mask3_4544_16890" style="mask-type:alpha" maskUnits="userSpaceOnUse" x="-2" y="-2" width="24" height="19">
<path fill-rule="evenodd" clip-rule="evenodd" d="M12.362 -1.25H7.63945V5H-1.23242V10H7.63945V16.25H12.362V10H21.2682V5H12.362V-1.25Z" fill="white"/>
</mask>
<g mask="url(#mask3_4544_16890)">
<path fill-rule="evenodd" clip-rule="evenodd" d="M12.362 -1.25H7.63945V5H-1.23242V10H7.63945V16.25H12.362V10H21.2682V5H12.362V-1.25Z" fill="#F50100"/>
<path d="M7.63945 -1.25V-2.5H6.38945V-1.25H7.63945ZM12.362 -1.25H13.612V-2.5H12.362V-1.25ZM7.63945 5V6.25H8.88945V5H7.63945ZM-1.23242 5V3.75H-2.48242V5H-1.23242ZM-1.23242 10H-2.48242V11.25H-1.23242V10ZM7.63945 10H8.88945V8.75H7.63945V10ZM7.63945 16.25H6.38945V17.5H7.63945V16.25ZM12.362 16.25V17.5H13.612V16.25H12.362ZM12.362 10V8.75H11.112V10H12.362ZM21.2682 10V11.25H22.5182V10H21.2682ZM21.2682 5H22.5182V3.75H21.2682V5ZM12.362 5H11.112V6.25H12.362V5ZM7.63945 0H12.362V-2.5H7.63945V0ZM8.88945 5V-1.25H6.38945V5H8.88945ZM-1.23242 6.25H7.63945V3.75H-1.23242V6.25ZM0.0175781 10V5H-2.48242V10H0.0175781ZM7.63945 8.75H-1.23242V11.25H7.63945V8.75ZM8.88945 16.25V10H6.38945V16.25H8.88945ZM12.362 15H7.63945V17.5H12.362V15ZM11.112 10V16.25H13.612V10H11.112ZM21.2682 8.75H12.362V11.25H21.2682V8.75ZM20.0182 5V10H22.5182V5H20.0182ZM12.362 6.25H21.2682V3.75H12.362V6.25ZM11.112 -1.25V5H13.612V-1.25H11.112Z" fill="white"/>
</g>
</g>
</g>
</g>
</svg>
