<svg width="25" height="25" viewBox="0 0 25 25" fill="none" xmlns="http://www.w3.org/2000/svg">
<path fill-rule="evenodd" clip-rule="evenodd" d="M25 23.6202C25 24.3822 24.3821 25 23.6202 25H16.5227C16.5227 24.9999 16.5227 24.9998 16.5227 24.9996V17.7951H18.8182C19.1164 17.7951 19.3764 17.5921 19.4488 17.3027L20.4306 13.3755C20.4791 13.1813 20.4355 12.9756 20.3123 12.8178C20.1892 12.66 20.0002 12.5678 19.8 12.5678H16.5227V10.2724C16.5227 10.1844 16.5577 10.1 16.6199 10.0377C16.6821 9.97551 16.7665 9.94055 16.8545 9.94055H19.8C20.159 9.94055 20.45 9.64954 20.45 9.29055V5.36328C20.45 5.0043 20.159 4.71328 19.8 4.71328H16.8545C15.3802 4.71328 13.9662 5.29897 12.9237 6.3415C11.8811 7.38403 11.2955 8.79801 11.2955 10.2724V12.5678H9C8.64102 12.5678 8.35 12.8588 8.35 13.2178V17.1451C8.35 17.5041 8.64102 17.7951 9 17.7951H11.2955V24.9996C11.2955 24.9998 11.2955 24.9999 11.2955 25H1.37979C0.617578 25 0 24.3822 0 23.6202V1.37978C0 0.617673 0.617578 0 1.37979 0H23.6202C24.3821 0 25 0.617673 25 1.37978V23.6202ZM13.8429 7.26074C14.6416 6.46201 15.725 6.01328 16.8545 6.01328H19.15V8.64055H16.8545C16.4218 8.64055 16.0067 8.81248 15.7007 9.1185C15.3947 9.42453 15.2227 9.83959 15.2227 10.2724V13.2178C15.2227 13.5768 15.5137 13.8678 15.8727 13.8678H18.9675L18.3107 16.4951H15.8727C15.5137 16.4951 15.2227 16.7861 15.2227 17.1451V24.3496H12.5955V17.1451C12.5955 16.7861 12.3044 16.4951 11.9455 16.4951H9.65V13.8678H11.9455C12.3044 13.8678 12.5955 13.5768 12.5955 13.2178V10.2724C12.5955 9.14279 13.0442 8.05947 13.8429 7.26074Z" fill="#4F46E0"/>
</svg>
