<svg width="13" height="13" viewBox="0 0 13 13" fill="none" xmlns="http://www.w3.org/2000/svg">
<path d="M7.58333 13H5.41667C5.12935 13 4.8538 12.8859 4.65063 12.6827C4.44747 12.4795 4.33333 12.204 4.33333 11.9167V7.80542L0.319583 3.79167C0.11614 3.58944 0.00120943 3.31477 0 3.02792V1.08333C0 0.796016 0.114137 0.520465 0.317301 0.317301C0.520465 0.114137 0.796016 0 1.08333 0H11.9167C12.204 0 12.4795 0.114137 12.6827 0.317301C12.8859 0.520465 13 0.796016 13 1.08333V3.02792C12.9988 3.31477 12.8839 3.58944 12.6804 3.79167L8.66667 7.80542V11.9167C8.66667 12.204 8.55253 12.4795 8.34937 12.6827C8.1462 12.8859 7.87065 13 7.58333 13ZM1.08333 1.08333V3.02792L5.41667 7.36125V11.9167H7.58333V7.36125L11.9167 3.02792V1.08333H1.08333Z" fill="#8B8A8E"/>
</svg>
