<svg width="15" height="15" viewBox="0 0 15 15" fill="none" xmlns="http://www.w3.org/2000/svg">
<path d="M14.717 5.7237C14.6498 5.62614 14.5594 5.54686 14.454 5.49303C14.3485 5.43919 14.2312 5.4125 14.1128 5.41537H4.65449C4.45492 5.42383 4.26161 5.48751 4.09609 5.59933C3.93057 5.71115 3.79934 5.86671 3.71699 6.0487C3.71563 6.06812 3.71563 6.08761 3.71699 6.10703L2.50033 10.4154V2.91537H5.20449L6.29199 4.4112C6.33078 4.46428 6.38158 4.50743 6.44024 4.53712C6.4989 4.56682 6.56375 4.5822 6.62949 4.58203H13.3337C13.3337 4.36102 13.2459 4.14906 13.0896 3.99278C12.9333 3.8365 12.7213 3.7487 12.5003 3.7487H6.84199L5.87949 2.4237C5.80191 2.31754 5.70031 2.23124 5.583 2.17185C5.46568 2.11247 5.33598 2.08169 5.20449 2.08203H2.50033C2.27931 2.08203 2.06735 2.16983 1.91107 2.32611C1.75479 2.48239 1.66699 2.69435 1.66699 2.91537V12.3695C1.6735 12.5195 1.7388 12.6608 1.84875 12.763C1.95871 12.8652 2.10447 12.9199 2.25449 12.9154H12.642C12.735 12.9191 12.8265 12.8915 12.902 12.8372C12.9775 12.7828 13.0327 12.7047 13.0587 12.6154L14.8045 6.3237C14.8371 6.2237 14.8461 6.11753 14.8309 6.01346C14.8158 5.9094 14.7768 5.81023 14.717 5.7237ZM12.3128 12.082H2.87533L4.49199 6.32787C4.53145 6.27704 4.58747 6.24165 4.65033 6.22787H13.9545L12.3128 12.082Z" fill="#474747"/>
</svg>
