<svg width="16" height="16" viewBox="0 0 16 16" fill="none" xmlns="http://www.w3.org/2000/svg">
<g clip-path="url(#clip0_3465_7824)">
<path d="M4.50195 9C4.89978 9 5.28131 8.84196 5.56261 8.56066C5.84392 8.27936 6.00195 7.89782 6.00195 7.5C6.00195 7.10218 5.84392 6.72064 5.56261 6.43934C5.28131 6.15804 4.89978 6 4.50195 6C4.10413 6 3.7226 6.15804 3.44129 6.43934C3.15999 6.72064 3.00195 7.10218 3.00195 7.5C3.00195 7.89782 3.15999 8.27936 3.44129 8.56066C3.7226 8.84196 4.10413 9 4.50195 9Z" fill="#5F6CFA"/>
<path d="M14.002 13C14.002 13.5304 13.7912 14.0391 13.4162 14.4142C13.0411 14.7893 12.5324 15 12.002 15H2.00195C1.47152 15 0.962812 14.7893 0.58774 14.4142C0.212667 14.0391 0.00195313 13.5304 0.00195313 13V5C0.00195286 4.46991 0.212392 3.96151 0.587032 3.58649C0.961673 3.21148 1.46987 3.00053 1.99995 3C1.99995 2.46957 2.21067 1.96086 2.58574 1.58579C2.96081 1.21071 3.46952 1 3.99995 1H14C14.5304 1 15.0391 1.21071 15.4142 1.58579C15.7892 1.96086 16 2.46957 16 3V11C16 11.5301 15.7895 12.0385 15.4149 12.4135C15.0402 12.7885 14.532 12.9995 14.002 13ZM14 2H3.99995C3.73474 2 3.48038 2.10536 3.29285 2.29289C3.10531 2.48043 2.99995 2.73478 2.99995 3H12.002C12.5324 3 13.0411 3.21071 13.4162 3.58579C13.7912 3.96086 14.002 4.46957 14.002 5V12C14.2668 11.9995 14.5207 11.8939 14.7078 11.7064C14.8949 11.5189 15 11.2649 15 11V3C15 2.73478 14.8946 2.48043 14.7071 2.29289C14.5195 2.10536 14.2652 2 14 2ZM2.00195 4C1.73674 4 1.48238 4.10536 1.29485 4.29289C1.10731 4.48043 1.00195 4.73478 1.00195 5V13L3.64795 10.646C3.72969 10.5646 3.83707 10.5139 3.95189 10.5026C4.06672 10.4913 4.18191 10.5201 4.27795 10.584L6.93795 12.357L10.648 8.647C10.7221 8.57277 10.8177 8.52376 10.9213 8.50689C11.0248 8.49002 11.1311 8.50615 11.225 8.553L13.002 10.5V5C13.002 4.73478 12.8966 4.48043 12.7091 4.29289C12.5215 4.10536 12.2672 4 12.002 4H2.00195Z" fill="#5F6CFA"/>
</g>
<defs>
<clipPath id="clip0_3465_7824">
<rect width="16" height="16" fill="white"/>
</clipPath>
</defs>
</svg>
