<svg width="25" height="25" viewBox="0 0 25 25" fill="none" xmlns="http://www.w3.org/2000/svg">
<path fill-rule="evenodd" clip-rule="evenodd" d="M25 23.6202C25 24.3822 24.3821 25 23.6202 25H1.37979C0.617578 25 0 24.3822 0 23.6202V1.37978C0 0.617673 0.617578 0 1.37979 0H23.6202C24.3821 0 25 0.617673 25 1.37978V23.6202ZM9.32949 12.5C9.32949 10.7556 10.753 9.33198 12.4974 9.33198C14.2418 9.33198 15.6654 10.7556 15.6654 12.5C15.6654 14.2444 14.2418 15.668 12.4974 15.668C10.753 15.668 9.32949 14.2444 9.32949 12.5ZM21.9993 12.0201C21.9991 12.1799 21.9989 12.3399 21.9989 12.5C21.9989 12.6791 21.9992 12.8579 21.9995 13.0366C22.0011 14.1669 22.0028 15.2906 21.9371 16.4214C21.8635 17.9424 21.5189 19.29 20.4043 20.4046C19.292 21.5168 17.9421 21.8638 16.4211 21.9375C15.2715 22.0022 14.1291 22.0009 12.9796 21.9996C12.8198 21.9995 12.6599 21.9993 12.4998 21.9993C12.34 21.9993 12.1804 21.9995 12.0209 21.9996C10.8729 22.0009 9.7303 22.0022 8.5785 21.9375C7.0575 21.8638 5.70999 21.5192 4.59538 20.4046C3.48315 19.2923 3.13617 17.9424 3.0625 16.4214C2.99781 15.2717 2.99908 14.1274 3.00035 12.979C3.00053 12.8194 3.00071 12.6598 3.00071 12.5C3.00071 12.3402 3.00053 12.1805 3.00035 12.021C2.99908 10.873 2.99781 9.7304 3.0625 8.5786C3.13617 7.05757 3.48077 5.71004 4.59538 4.59541C5.70761 3.48316 7.0575 3.13617 8.5785 3.0625C9.72815 2.99782 10.8705 2.99908 12.0199 3.00035C12.1798 3.00053 12.3397 3.00071 12.4998 3.00071C12.6596 3.00071 12.8193 3.00053 12.9788 3.00035C14.1268 2.99908 15.2694 2.99781 16.4211 3.0625C17.9421 3.13617 19.2897 3.48078 20.4043 4.59541C21.5165 5.70766 21.8635 7.05757 21.9371 8.5786C22.0018 9.72828 22.0006 10.8706 21.9993 12.0201ZM7.62312 12.5C7.62312 15.1974 9.80005 17.3744 12.4974 17.3744C15.1948 17.3744 17.3718 15.1974 17.3718 12.5C17.3718 9.80255 15.1948 7.62558 12.4974 7.62558C9.80005 7.62558 7.62312 9.80255 7.62312 12.5ZM16.433 7.42595C16.433 8.05575 16.9416 8.56434 17.5714 8.56434C17.721 8.56453 17.8691 8.53521 18.0073 8.47807C18.1455 8.42093 18.271 8.33708 18.3768 8.23133C18.4825 8.12558 18.5664 8.00001 18.6235 7.86181C18.6806 7.72361 18.71 7.5755 18.7098 7.42595C18.7098 6.79615 18.2012 6.28755 17.5714 6.28755C16.9416 6.28755 16.433 6.79615 16.433 7.42595Z" fill="#75D7D6"/>
</svg>
