<svg width="25" height="25" viewBox="0 0 25 25" fill="none" xmlns="http://www.w3.org/2000/svg">
<path fill-rule="evenodd" clip-rule="evenodd" d="M25 23.6202C25 24.3822 24.3821 25 23.6202 25H1.37979C0.617578 25 0 24.3822 0 23.6202V1.37978C0 0.617673 0.617578 0 1.37979 0H23.6202C24.3821 0 25 0.617673 25 1.37978V23.6202ZM15.65 5H9.35C8.19631 5 7.08987 5.4583 6.27409 6.27409C5.4583 7.08987 5 8.19631 5 9.35V15.65C5 18.05 6.95 20 9.35 20H15.65C16.8037 20 17.9101 19.5417 18.7259 18.7259C19.5417 17.9101 20 16.8037 20 15.65V9.35C20 6.95 18.05 5 15.65 5ZM7.29081 7.29081C7.79716 6.78446 8.48392 6.5 9.2 6.5H15.8C17.2925 6.5 18.5 7.7075 18.5 9.2V15.8C18.5 16.5161 18.2155 17.2028 17.7092 17.7092C17.2028 18.2155 16.5161 18.5 15.8 18.5H9.2C7.7075 18.5 6.5 17.2925 6.5 15.8V9.2C6.5 8.48392 6.78446 7.79716 7.29081 7.29081ZM17.1004 7.89959C16.9246 7.72377 16.6861 7.625 16.4375 7.625C16.1889 7.625 15.9504 7.72377 15.7746 7.89959C15.5988 8.0754 15.5 8.31386 15.5 8.5625C15.5 8.81114 15.5988 9.0496 15.7746 9.22541C15.9504 9.40123 16.1889 9.5 16.4375 9.5C16.6861 9.5 16.9246 9.40123 17.1004 9.22541C17.2762 9.0496 17.375 8.81114 17.375 8.5625C17.375 8.31386 17.2762 8.0754 17.1004 7.89959ZM15.1517 9.84835C14.4484 9.14509 13.4946 8.75 12.5 8.75C11.5054 8.75 10.5516 9.14509 9.84835 9.84835C9.14509 10.5516 8.75 11.5054 8.75 12.5C8.75 13.4946 9.14509 14.4484 9.84835 15.1517C10.5516 15.8549 11.5054 16.25 12.5 16.25C13.4946 16.25 14.4484 15.8549 15.1517 15.1517C15.8549 14.4484 16.25 13.4946 16.25 12.5C16.25 11.5054 15.8549 10.5516 15.1517 9.84835ZM10.909 10.909C11.331 10.4871 11.9033 10.25 12.5 10.25C13.0967 10.25 13.669 10.4871 14.091 10.909C14.5129 11.331 14.75 11.9033 14.75 12.5C14.75 13.0967 14.5129 13.669 14.091 14.091C13.669 14.5129 13.0967 14.75 12.5 14.75C11.9033 14.75 11.331 14.5129 10.909 14.091C10.4871 13.669 10.25 13.0967 10.25 12.5C10.25 11.9033 10.4871 11.331 10.909 10.909Z" fill="#4F46E0"/>
</svg>
