<svg width="32" height="32" viewBox="0 0 32 32" fill="none" xmlns="http://www.w3.org/2000/svg">
<path d="M27.2001 27.04V23.04C27.2001 21.92 27.0401 20.8 26.4001 19.68C25.7601 18.56 24.9601 17.6 23.84 16.96C22.72 16.16 20.3201 16 19.2001 16L16.64 18.72L17.6 20.8V25.6L16 27.36L14.4 25.6V20.8L15.52 18.72L12.8 16C11.52 16 9.12005 16.16 8.00005 16.96C6.88005 17.6 6.24005 18.56 5.60005 19.68C4.96005 20.8 4.80005 21.76 4.80005 23.04V27.04C4.80005 27.04 8.96005 28.8 16 28.8C23.0401 28.8 27.2001 27.04 27.2001 27.04Z" fill="white"/>
<path d="M15.9999 3.35938C12.9599 3.35938 11.1999 6.23938 11.6799 9.43938C12.1599 12.6394 13.7599 14.8794 15.9999 14.8794C18.2399 14.8794 19.8399 12.6394 20.3199 9.43938C20.7999 6.07938 19.0399 3.35938 15.9999 3.35938V3.35938Z" fill="white"/>
</svg>
