<svg width="17" height="23" viewBox="0 0 17 23" fill="none" xmlns="http://www.w3.org/2000/svg">
<path d="M11.6073 12.25C8.9072 14.0501 6.48209 13 5.60706 12.25V13.375L8.60718 16.3752L11.6073 13.375V12.25Z" fill="white"/>
<path d="M8.23215 17.5001L4.857 14.5L2.23189 15.25C0.356812 15.625 0.356812 16.7501 0.356812 17.5001V21.6253C0.356812 21.9253 0.606822 22.0003 0.731827 22.0003H8.23215V17.5001Z" fill="white"/>
<path d="M8.98209 17.5001L12.3572 14.5L14.9823 15.25C16.8574 15.625 16.8574 16.7501 16.8574 17.5001V21.6253C16.8574 21.9253 16.6074 22.0003 16.4824 22.0003H8.98209V17.5001Z" fill="white"/>
<path d="M14.9825 7.37527V1H2.23193" stroke="white" stroke-width="2" stroke-linecap="round" stroke-linejoin="round"/>
<rect x="4.48206" y="1" width="8.25035" height="3.75016" fill="white"/>
<path fill-rule="evenodd" clip-rule="evenodd" d="M4.4821 5.50103V8.1064L4.48206 8.12592L4.4821 8.14544V8.50013H4.4988C4.68789 10.603 6.4551 12.2511 8.60723 12.2511C10.7594 12.2511 12.5266 10.603 12.7157 8.50013H12.7325V5.5H12.7324V5.50103H4.4821Z" fill="white"/>
</svg>
