<svg width="23" height="23" viewBox="0 0 23 23" fill="none" xmlns="http://www.w3.org/2000/svg">
<path d="M5.58829 18.3219C5.37036 18.0375 5.16757 17.7205 4.98226 17.3767C4.77715 16.9968 4.59184 16.5796 4.42868 16.1344H2.70499C2.87515 16.3465 3.05695 16.5493 3.24925 16.7404C3.91472 17.407 4.70839 17.9466 5.58829 18.3219ZM1.98475 15.0563H4.09536C3.85645 14.1287 3.70727 13.1112 3.66998 12.039H1.09785C1.17593 13.1264 1.48827 14.1485 1.98475 15.0563ZM1.09785 10.961H3.66998C3.70727 9.88878 3.85645 8.87018 4.09536 7.94365H1.98475C1.48827 8.85153 1.17593 9.87362 1.09785 10.961ZM2.70499 6.86562H4.42868C4.59184 6.41925 4.77715 6.00319 4.98226 5.62326C5.16757 5.27829 5.37036 4.96245 5.58829 4.67808C4.70839 5.05219 3.91472 5.59296 3.24925 6.25842C3.05695 6.45072 2.87515 6.65351 2.70499 6.86562ZM8.49025 3.01034C9.04033 3.01034 9.57993 3.06278 10.1009 3.16301V4.83425C9.76524 4.51026 9.40512 4.28183 9.02868 4.16879V6.86562H10.1009V7.94365H9.02868V10.961H10.1009V12.039H9.02868V15.0563H10.1009V16.1344H9.02868V18.8312C9.40512 18.7182 9.76524 18.4897 10.1009 18.1646V19.837C9.57993 19.9372 9.04033 19.9897 8.49025 19.9897C6.14538 19.9897 4.02311 19.0398 2.48705 17.5026C0.949835 15.9666 0 13.8443 0 11.4994C0 9.15571 0.949835 7.03344 2.48705 5.49622C4.02311 3.96017 6.14538 3.01034 8.49025 3.01034ZM7.95065 18.8312V16.1344H5.58247C5.68969 16.3919 5.80623 16.6378 5.92977 16.8674C6.48335 17.893 7.18612 18.6016 7.95065 18.8312ZM5.20953 15.0563H7.95065V12.039H4.74801C4.7888 13.1252 4.9508 14.1473 5.20953 15.0563ZM4.74801 10.961H7.95065V7.94365H5.20953C4.9508 8.8527 4.7888 9.87362 4.74801 10.961ZM5.58247 6.86562H7.95065V4.16879C7.18612 4.39838 6.48335 5.1058 5.92977 6.13256C5.80623 6.36215 5.68969 6.60689 5.58247 6.86562ZM10.7687 0H20.4267V12.0856H19.4046V11.4784H11.7908V12.736H17.1145V14.0832H11.7908V15.3407H17.1145V16.6891H11.7908V17.9466H17.1145V19.2939H11.7908V20.5526H17.1145V23H10.7687V0ZM17.7648 12.736H23V23H21.3602V20.6563H19.4046V23H17.7648V12.736ZM18.4711 13.4026H19.3125V14.8244H18.4711V13.4026ZM18.4711 18.0236H19.3125V19.4454H18.4711V18.0236ZM21.4511 18.0236H22.2926V19.4454H21.4511V18.0236ZM19.9617 18.0236H20.8031V19.4454H19.9617V18.0236ZM18.4711 15.7125H19.3125V17.1355H18.4711V15.7125ZM21.4511 15.7125H22.2926V17.1355H21.4511V15.7125ZM19.9617 15.7125H20.8031V17.1355H19.9617V15.7125ZM21.4511 13.4026H22.2926V14.8244H21.4511V13.4026ZM19.9617 13.4026H20.8031V14.8244H19.9617V13.4026ZM11.7908 1.05589H19.4046V2.31457H11.7908V1.05589ZM11.7908 8.87251H19.4046V10.13H11.7908V8.87251ZM11.7908 6.26658H19.4046V7.52526H11.7908V6.26658ZM11.7908 3.66182H19.4046V4.91933H11.7908V3.66182Z" fill="white"/>
</svg>
