<svg width="15" height="13" viewBox="0 0 15 13" fill="none" xmlns="http://www.w3.org/2000/svg">
<path d="M3.48485 2.83171L4.28089e-07 6.02371L3.48485 9.19171L3.48485 7.06771L8.69949 7.06771L8.69949 4.95571L3.48485 4.95571L3.48485 2.83171ZM5.58081 8.97571L4.24242 10.2597C5.55556 11.4277 6.97811 12.0117 8.5101 12.0117C10.3367 12.0117 11.875 11.4377 13.125 10.2897C14.375 9.14171 15 7.70771 15 5.98771C15 4.90771 14.7138 3.90771 14.1414 2.98772C13.569 2.06772 12.7967 1.34172 11.8245 0.809718C10.8523 0.277718 9.79798 0.0117183 8.66162 0.0117182C7.1128 0.0117181 5.64394 0.603717 4.25505 1.78772L5.58081 3.05971C6.54041 2.22772 7.56313 1.81172 8.64899 1.81172C9.9032 1.81172 10.9617 2.22772 11.8245 3.05971C12.6873 3.89171 13.1187 4.90771 13.1187 6.10771C13.1187 7.22771 12.6747 8.19171 11.7866 8.99971C10.8986 9.80771 9.8569 10.2117 8.66162 10.2117C7.55892 10.2117 6.53199 9.79971 5.58081 8.97571Z" fill="#4F46E0"/>
</svg>
