<svg width="14" height="17" viewBox="0 0 14 17" fill="none" xmlns="http://www.w3.org/2000/svg">
<path d="M6.88936 9.47031L6.89492 9.44434C7.00254 9.00088 7.13799 8.44795 7.03223 7.94697C6.96172 7.55176 6.67041 7.39775 6.42178 7.38662C6.12861 7.37363 5.86699 7.54063 5.80205 7.78369C5.67959 8.229 5.78906 8.8376 5.98945 9.61318C5.73711 10.2144 5.33447 11.0883 5.03945 11.6078C4.49023 11.8917 3.75361 12.3296 3.64414 12.8825C3.62187 12.9846 3.64785 13.1145 3.70908 13.2313C3.77773 13.3612 3.88721 13.4614 4.01523 13.5097C4.0709 13.5301 4.1377 13.5468 4.21563 13.5468C4.54219 13.5468 5.071 13.2833 5.77607 12.0735C5.88369 12.0383 5.99502 12.0012 6.10264 11.9641C6.60732 11.7934 7.13057 11.6152 7.60371 11.5354C8.12695 11.8156 8.72256 11.9956 9.12705 11.9956C9.52783 11.9956 9.68555 11.7581 9.74492 11.6152C9.84883 11.3647 9.79873 11.0493 9.62988 10.8805C9.38496 10.6393 8.78936 10.5762 7.86162 10.6912C7.40518 10.4129 7.10644 10.0344 6.88936 9.47031ZM4.85391 12.2888C4.596 12.6636 4.40117 12.851 4.29541 12.9326C4.41973 12.7044 4.66279 12.4632 4.85391 12.2888ZM6.4793 7.91914C6.57578 8.08428 6.56279 8.5834 6.48857 8.83574C6.39766 8.4665 6.38467 7.94326 6.43848 7.88203C6.45332 7.88389 6.46631 7.89502 6.4793 7.91914ZM6.44961 10.155C6.64814 10.4982 6.89863 10.7933 7.1751 11.0122C6.77432 11.1031 6.40879 11.2534 6.08223 11.387C6.0043 11.4186 5.92822 11.4501 5.854 11.4798C6.10078 11.0326 6.30674 10.5261 6.44961 10.155ZM9.33672 11.3703C9.33857 11.374 9.34043 11.3796 9.3293 11.387H9.32559L9.32188 11.3926C9.30703 11.4019 9.15488 11.4909 8.4999 11.233C9.25322 11.1978 9.33486 11.3685 9.33672 11.3703ZM12.8881 4.16738L8.89512 0.174414C8.78379 0.063086 8.6335 0 8.47578 0H0.59375C0.265332 0 0 0.265332 0 0.59375V16.0312C0 16.3597 0.265332 16.625 0.59375 16.625H12.4688C12.7972 16.625 13.0625 16.3597 13.0625 16.0312V4.58857C13.0625 4.43086 12.9994 4.27871 12.8881 4.16738ZM11.6932 4.86133H8.20117V1.36934L11.6932 4.86133ZM11.7266 15.2891H1.33594V1.33594H6.93945V5.34375C6.93945 5.55043 7.02156 5.74865 7.1677 5.8948C7.31385 6.04094 7.51207 6.12305 7.71875 6.12305H11.7266V15.2891Z" fill="#5F6CFA"/>
</svg>
