<svg width="15" height="15" viewBox="0 0 15 15" fill="none" xmlns="http://www.w3.org/2000/svg">
<path d="M11.25 6.09375H10.3125C10.3121 5.7209 10.1639 5.36343 9.90021 5.09979C9.63657 4.83615 9.2791 4.68787 8.90625 4.6875V3.75C9.52762 3.75074 10.1233 3.99791 10.5627 4.43729C11.0021 4.87667 11.2493 5.47238 11.25 6.09375Z" fill="white"/>
<path d="M13.125 6.09375H12.1875C12.1865 5.22381 11.8405 4.38979 11.2253 3.77465C10.6102 3.15951 9.77619 2.81349 8.90625 2.8125V1.875C10.0248 1.87624 11.0971 2.32111 11.888 3.11201C12.6789 3.90291 13.1238 4.97525 13.125 6.09375Z" fill="white"/>
<path d="M12.1877 13.5938H12.108C2.89711 13.0641 1.58929 5.29219 1.40648 2.92031C1.37791 2.54848 1.49821 2.18052 1.74092 1.89737C1.98362 1.61423 2.32887 1.43908 2.7007 1.41047C2.73789 1.40766 2.77523 1.40625 2.81273 1.40625H5.28304C5.4708 1.40607 5.65429 1.46227 5.80975 1.56758C5.9652 1.67288 6.08545 1.82244 6.15492 1.99688L6.86742 3.75C6.93602 3.92041 6.95304 4.10722 6.91638 4.28723C6.87971 4.46724 6.79096 4.6325 6.66117 4.7625L5.66273 5.77031C5.81806 6.65687 6.24229 7.47421 6.87789 8.11149C7.51349 8.74877 8.32971 9.17515 9.21586 9.33281L10.233 8.325C10.365 8.19664 10.5318 8.10996 10.7127 8.07578C10.8936 8.04161 11.0805 8.06144 11.2502 8.13281L13.0174 8.84063C13.1892 8.91229 13.3358 9.03348 13.4385 9.18875C13.5412 9.34403 13.5953 9.52635 13.594 9.7125V12.1875C13.594 12.5605 13.4458 12.9181 13.1821 13.1819C12.9184 13.4456 12.5607 13.5938 12.1877 13.5938ZM2.81273 2.34375C2.75117 2.34357 2.69018 2.35551 2.63324 2.37889C2.5763 2.40228 2.52452 2.43665 2.48086 2.48005C2.4372 2.52345 2.40252 2.57502 2.37879 2.63182C2.35507 2.68862 2.34276 2.74954 2.34257 2.81109C2.34257 2.82422 2.34304 2.83719 2.34398 2.85C2.55961 5.625 3.94242 12.1875 12.1596 12.6562C12.2837 12.6637 12.4056 12.6215 12.4986 12.5391C12.5916 12.4566 12.6481 12.3406 12.6555 12.2166L12.6565 12.1875V9.7125L10.8893 9.00469L9.54398 10.3406L9.31898 10.3125C5.24086 9.80156 4.68773 5.72344 4.68773 5.68125L4.65961 5.45625L5.99086 4.11094L5.28773 2.34375H2.81273Z" fill="white"/>
</svg>
