<svg width="11" height="11" viewBox="0 0 11 11" fill="none" xmlns="http://www.w3.org/2000/svg">
<path d="M10.9545 4.13512C10.8493 3.79121 10.5774 3.56412 10.2254 3.52704L7.67341 3.28401C7.50027 3.26786 7.36114 3.1616 7.29139 2.99193L6.27759 0.531718C6.13808 0.203556 5.84015 0 5.50056 0C5.1539 0 4.85559 0.204952 4.72258 0.533911L3.70955 2.99233C3.63999 3.1618 3.50067 3.26806 3.32715 3.28421L0.76809 3.52744C0.424869 3.56432 0.153694 3.79001 0.041134 4.13532C-0.0626349 4.47464 0.0331077 4.8347 0.292434 5.07614L2.22047 6.83877C2.35138 6.95918 2.40431 7.12945 2.36609 7.30549L1.79737 9.91603C1.72016 10.2677 1.8461 10.6178 2.12645 10.8295C2.39934 11.0359 2.76932 11.0528 3.05808 10.8736L5.26532 9.50433C5.41399 9.40883 5.58389 9.40724 5.73791 9.50613L7.94248 10.8734C8.07568 10.9561 8.22588 11 8.37705 11C8.55535 11 8.726 10.9406 8.86875 10.8297C9.1491 10.6178 9.27523 10.2677 9.19822 9.91683L8.63484 7.30549C8.59643 7.12945 8.64956 6.95938 8.78008 6.83916L10.7074 5.07136C10.9709 4.83351 11.0651 4.47365 10.9545 4.13512Z" fill="#4F46E0"/>
</svg>
