<svg width="6" height="6" viewBox="0 0 6 6" fill="none" xmlns="http://www.w3.org/2000/svg">
<path d="M3.46998 2.99941L4.90331 1.56941C4.96608 1.50664 5.00134 1.42151 5.00134 1.33274C5.00134 1.24398 4.96608 1.15885 4.90331 1.09608C4.84054 1.03331 4.75541 0.998047 4.66665 0.998047C4.57788 0.998047 4.49275 1.03331 4.42998 1.09608L2.99998 2.52941L1.56998 1.09608C1.50721 1.03331 1.42208 0.998047 1.33331 0.998047C1.24455 0.998047 1.15941 1.03331 1.09665 1.09608C1.03388 1.15885 0.998616 1.24398 0.998616 1.33274C0.998616 1.42151 1.03388 1.50664 1.09665 1.56941L2.52998 2.99941L1.09665 4.42941C1.0654 4.4604 1.04061 4.49727 1.02368 4.53788C1.00676 4.5785 0.998047 4.62207 0.998047 4.66608C0.998047 4.71008 1.00676 4.75365 1.02368 4.79427C1.04061 4.83489 1.0654 4.87176 1.09665 4.90274C1.12763 4.93399 1.1645 4.95878 1.20512 4.97571C1.24574 4.99263 1.28931 5.00134 1.33331 5.00134C1.37732 5.00134 1.42089 4.99263 1.46151 4.97571C1.50212 4.95878 1.53899 4.93399 1.56998 4.90274L2.99998 3.46941L4.42998 4.90274C4.46097 4.93399 4.49783 4.95878 4.53845 4.97571C4.57907 4.99263 4.62264 5.00134 4.66665 5.00134C4.71065 5.00134 4.75422 4.99263 4.79484 4.97571C4.83546 4.95878 4.87232 4.93399 4.90331 4.90274C4.93456 4.87176 4.95935 4.83489 4.97628 4.79427C4.9932 4.75365 5.00191 4.71008 5.00191 4.66608C5.00191 4.62207 4.9932 4.5785 4.97628 4.53788C4.95935 4.49727 4.93456 4.4604 4.90331 4.42941L3.46998 2.99941Z" fill="#474747"/>
</svg>
