<svg width="19" height="19" viewBox="0 0 19 19" fill="none" xmlns="http://www.w3.org/2000/svg">
<g clip-path="url(#clip0_1459_7862)">
<path d="M12.0732 8.11728e-07C10.8149 -0.000626443 9.58309 0.362287 8.52607 1.0451C7.46905 1.7279 6.63179 2.70153 6.11497 3.84889C5.59816 4.99625 5.42381 6.26847 5.61288 7.51257C5.80195 8.75667 6.3464 9.91965 7.18074 10.8617L0.791992 18.1133L1.67866 18.905L8.05158 11.685C8.87132 12.3262 9.83241 12.7623 10.8548 12.9568C11.8772 13.1514 12.9313 13.0989 13.9292 12.8036C14.9272 12.5083 15.8402 11.9789 16.5921 11.2593C17.344 10.5398 17.9131 9.65103 18.252 8.66702C18.5909 7.68301 18.6898 6.63227 18.5404 5.60232C18.391 4.57236 17.9977 3.59301 17.3932 2.74584C16.7887 1.89867 15.9905 1.20821 15.0651 0.731963C14.1397 0.255717 13.114 0.00747578 12.0732 0.00791748V8.11728e-07ZM12.0732 11.875C10.656 11.875 9.29679 11.312 8.29464 10.3099C7.29249 9.30771 6.72949 7.9485 6.72949 6.53125C6.72949 5.114 7.29249 3.7548 8.29464 2.75265C9.29679 1.7505 10.656 1.1875 12.0732 1.1875C13.4905 1.1875 14.8497 1.7505 15.8518 2.75265C16.854 3.7548 17.417 5.114 17.417 6.53125C17.417 7.9485 16.854 9.30771 15.8518 10.3099C14.8497 11.312 13.4905 11.875 12.0732 11.875Z" fill="#8B8A8E"/>
</g>
<defs>
<clipPath id="clip0_1459_7862">
<rect width="19" height="19" fill="white"/>
</clipPath>
</defs>
</svg>
