<svg width="16" height="15" viewBox="0 0 16 15" fill="none" xmlns="http://www.w3.org/2000/svg">
<path d="M8.09511 0.910739L9.41039 4.95877C9.55765 5.41199 9.98 5.71885 10.4566 5.71885H14.7129C14.7469 5.71885 14.7635 5.72821 14.7734 5.73589C14.7864 5.74593 14.8 5.76347 14.808 5.78795C14.816 5.81243 14.8152 5.83465 14.8106 5.85039C14.8071 5.86244 14.7992 5.87978 14.7717 5.89975L11.3282 8.40157C10.9427 8.68167 10.7814 9.17818 10.9286 9.6314L12.2439 13.6794C12.2544 13.7117 12.2506 13.7304 12.2464 13.7423C12.2409 13.7577 12.2284 13.7761 12.2076 13.7912C12.1868 13.8064 12.1654 13.8125 12.149 13.813C12.1365 13.8134 12.1175 13.8112 12.09 13.7912L8.64656 11.2894C8.26103 11.0093 7.73897 11.0093 7.35344 11.2894L3.90998 13.7912C3.88249 13.8112 3.86355 13.8134 3.851 13.813C3.83461 13.8125 3.81325 13.8064 3.79242 13.7912C3.7716 13.7761 3.75914 13.7577 3.7536 13.7423C3.74937 13.7304 3.74559 13.7117 3.75609 13.6794L5.07138 9.6314C5.21864 9.17818 5.05732 8.68167 4.67178 8.40157L1.22832 5.89975C1.20083 5.87978 1.1929 5.86244 1.18938 5.85039C1.18478 5.83465 1.18404 5.81243 1.192 5.78795C1.19995 5.76347 1.21361 5.74592 1.22658 5.73589C1.23651 5.72821 1.25312 5.71885 1.2871 5.71885H5.54345C6.02 5.71885 6.44235 5.41199 6.58961 4.95877L7.90489 0.91074C7.91539 0.878422 7.92943 0.86552 7.9398 0.85845C7.95336 0.849212 7.97426 0.841641 8 0.841641C8.02574 0.841641 8.04664 0.849212 8.0602 0.85845C8.07057 0.865519 8.08461 0.878421 8.09511 0.910739Z" stroke="#FFD53D"/>
</svg>
