<svg width="9" height="13" viewBox="0 0 9 13" fill="none" xmlns="http://www.w3.org/2000/svg">
<path d="M3.75 5.75V2.25C3.75 2.17708 3.72656 2.11719 3.67969 2.07031C3.63281 2.02344 3.57292 2 3.5 2C3.42708 2 3.36719 2.02344 3.32031 2.07031C3.27344 2.11719 3.25 2.17708 3.25 2.25V5.75C3.25 5.82292 3.27344 5.88281 3.32031 5.92969C3.36719 5.97656 3.42708 6 3.5 6C3.57292 6 3.63281 5.97656 3.67969 5.92969C3.72656 5.88281 3.75 5.82292 3.75 5.75ZM9 8.5C9 8.63542 8.95052 8.7526 8.85156 8.85156C8.7526 8.95052 8.63542 9 8.5 9H5.14844L4.75 12.7734C4.73958 12.8359 4.71224 12.8893 4.66797 12.9336C4.6237 12.9779 4.57031 13 4.50781 13H4.5C4.35938 13 4.27604 12.9297 4.25 12.7891L3.65625 9H0.5C0.364583 9 0.247396 8.95052 0.148438 8.85156C0.0494792 8.7526 0 8.63542 0 8.5C0 7.85938 0.204427 7.28255 0.613281 6.76953C1.02214 6.25651 1.48438 6 2 6V2C1.72917 2 1.49479 1.90104 1.29688 1.70312C1.09896 1.50521 1 1.27083 1 1C1 0.729167 1.09896 0.494792 1.29688 0.296875C1.49479 0.0989583 1.72917 0 2 0H7C7.27083 0 7.50521 0.0989583 7.70312 0.296875C7.90104 0.494792 8 0.729167 8 1C8 1.27083 7.90104 1.50521 7.70312 1.70312C7.50521 1.90104 7.27083 2 7 2V6C7.51562 6 7.97786 6.25651 8.38672 6.76953C8.79557 7.28255 9 7.85938 9 8.5Z" fill="#F459A4"/>
</svg>
