<svg width="25" height="25" viewBox="0 0 25 25" fill="none" xmlns="http://www.w3.org/2000/svg">
<path fill-rule="evenodd" clip-rule="evenodd" d="M25 23.6202C25 24.3822 24.3821 25 23.6202 25H1.37979C0.617578 25 0 24.3822 0 23.6202V1.37978C0 0.617673 0.617578 0 1.37979 0H23.6202C24.3821 0 25 0.617673 25 1.37978V23.6202ZM18.1313 6.13514C18.3254 6.0606 18.5315 6.01544 18.7415 6.00143C18.9865 5.99007 19.2296 6.04647 19.4393 6.16333C19.6889 6.30688 19.8711 6.53078 19.95 6.79111C20.0266 7.04834 20.0089 7.31336 19.9396 7.59638L17.4975 19.0662L17.4747 19.1201C17.4747 19.1201 17.3367 19.4553 16.9815 19.7174C16.629 19.9776 15.962 20.1251 15.3034 19.8601L15.2315 19.8319L12.0713 17.6091L10.1859 19.1831L10.163 19.1999C10.163 19.1999 9.75685 19.4877 9.25131 19.3474L9.24676 19.3467C9.2163 19.3424 9.19908 19.3399 9.17414 19.3336C9.17108 19.3326 9.1679 19.3307 9.16451 19.3287C9.15992 19.326 9.15493 19.323 9.14929 19.3216L9.18199 19.3288C9.12578 19.3136 9.07176 19.2923 9.0211 19.2653C8.92366 19.2089 8.84256 19.1387 8.77324 19.0548C8.63001 18.8905 8.51556 18.6752 8.39784 18.3311C8.27332 17.9714 7.9031 16.8613 7.60763 15.9754C7.4298 15.4422 7.27904 14.9902 7.22523 14.8318L4.03176 13.8454H4.02653C4.02653 13.8454 3.81464 13.7777 3.59228 13.6326C3.37254 13.4893 3.06647 13.2296 3.00761 12.7967C2.97164 12.5407 3.06843 12.2931 3.18876 12.1312C3.29012 11.9953 3.42049 11.8796 3.57201 11.7912C3.77474 11.6638 3.97033 11.5934 4.03204 11.5728C4.31938 11.4617 7.57339 10.2036 10.8811 8.9269L15.7089 7.06273C15.9551 6.96804 16.186 6.87923 16.4 6.79692C17.3567 6.42889 17.9763 6.19052 18.1287 6.13514H18.1313ZM18.6754 7.23122C18.6589 7.23122 18.6541 7.23122 18.6499 7.23272C18.6442 7.23472 18.6394 7.23942 18.6087 7.25041C18.5524 7.27079 17.559 7.65034 16.2151 8.1678C15.045 8.6209 13.5691 9.1908 12.0623 9.77265C11.8383 9.85914 11.6137 9.94589 11.3892 10.0326C7.925 11.3697 4.51703 12.6864 4.51703 12.6864L4.49676 12.693L4.47583 12.7026C4.46945 12.7054 4.4629 12.7078 4.45621 12.7098L4.46602 12.7116V12.714L8.28274 13.8922L8.28536 13.9042L16.2484 9.3814C16.2484 9.3814 16.6598 9.18892 16.6415 9.46114C16.6415 9.46114 16.7285 9.50791 16.4682 9.72977L10.1532 15.1262L9.66267 17.9983L11.9974 16.0472L15.8626 18.764C16.0751 18.8413 16.1157 18.818 16.1667 18.7808C16.2089 18.7499 16.2277 18.7191 16.2388 18.701C16.2404 18.6983 16.2418 18.6959 16.2432 18.6938L18.6623 7.34335V7.33675C18.6753 7.28517 18.6751 7.27238 18.6749 7.25572C18.6748 7.24908 18.6746 7.24181 18.6754 7.23122Z" fill="#4F46E0"/>
</svg>
