<svg width="12" height="10" viewBox="0 0 12 10" fill="none" xmlns="http://www.w3.org/2000/svg">
<path d="M11.1116 0.00102389C10.9634 0.0110269 10.818 0.0432824 10.6809 0.096532H10.6791C10.5475 0.144929 9.92196 0.389053 8.97097 0.759093L5.56311 2.09064C3.11778 3.04572 0.713993 3.98624 0.713993 3.98624L0.742615 3.97596C0.742615 3.97596 0.576885 4.0265 0.403768 4.13657C0.296818 4.19971 0.204787 4.28232 0.133245 4.37941C0.048302 4.49505 -0.0200213 4.67193 0.00536913 4.85481C0.0469171 5.16404 0.262967 5.34948 0.418079 5.45184C0.575038 5.55549 0.724611 5.60389 0.724611 5.60389H0.728304L2.98251 6.30842C3.08362 6.60951 3.66944 8.39632 3.81024 8.80791C3.89334 9.05375 3.97413 9.2075 4.07523 9.32485C4.12416 9.38481 4.18141 9.43492 4.25019 9.47518C4.28595 9.49448 4.32408 9.50972 4.36375 9.52058L4.34067 9.51544C4.3476 9.51715 4.35314 9.52229 4.35822 9.52401C4.37668 9.52872 4.38915 9.53043 4.41269 9.53386C4.76954 9.63408 5.05622 9.4285 5.05622 9.4285L5.07238 9.41651L6.4033 8.29225L8.63397 9.87991L8.68475 9.90004C9.14962 10.0893 9.6205 9.98399 9.86933 9.79811C10.12 9.61095 10.2174 9.37154 10.2174 9.37154L10.2336 9.33299L11.9573 1.14027C12.0063 0.938118 12.0187 0.748815 11.9647 0.565079C11.909 0.379127 11.7804 0.219197 11.6042 0.116662C11.4562 0.0331947 11.2846 -0.0070928 11.1116 0.00102389V0.00102389ZM11.065 0.879014C11.0631 0.905996 11.0687 0.902998 11.0558 0.954821V0.959532L9.34813 9.06702C9.34074 9.07859 9.32828 9.10386 9.29412 9.12913C9.25811 9.15568 9.22949 9.17238 9.07945 9.11713L6.35113 7.17656L4.70306 8.57021L5.0493 6.51871L9.50694 2.66412C9.69067 2.50565 9.62927 2.47225 9.62927 2.47225C9.6422 2.2778 9.35182 2.41528 9.35182 2.41528L3.73084 5.64586L3.72899 5.63729L1.03484 4.79571V4.79399L1.02791 4.79271C1.03263 4.79125 1.03726 4.78954 1.04176 4.78757L1.05653 4.78072L1.07084 4.77601C1.07084 4.77601 3.47647 3.83549 5.92181 2.8804C7.14609 2.40201 8.3796 1.92018 9.32828 1.54843C10.277 1.17882 10.9782 0.907709 11.0179 0.893148C11.0558 0.879442 11.0377 0.879442 11.065 0.879442V0.879014Z" fill="white"/>
</svg>
