<svg width="20" height="21" viewBox="0 0 20 21" fill="none" xmlns="http://www.w3.org/2000/svg">
<path d="M0 18.4651C0 19.1373 0.273147 19.7819 0.759353 20.2572C1.24556 20.7325 1.90499 20.9995 2.59259 20.9995H17.4074C18.095 20.9995 18.7544 20.7325 19.2406 20.2572C19.7269 19.7819 20 19.1373 20 18.4651V14.4824H17.7778V18.4651C17.7778 18.5611 17.7388 18.6532 17.6693 18.7211C17.5998 18.789 17.5056 18.8271 17.4074 18.8271H2.59259C2.49436 18.8271 2.40016 18.789 2.3307 18.7211C2.26124 18.6532 2.22222 18.5611 2.22222 18.4651V14.4824H0V18.4651Z" fill="#5F6CFA"/>
<path d="M11.1122 15.2051L11.1122 3.70604L14.4455 6.96459L16.0159 5.42945L10.7862 0.31716C10.5779 0.113755 10.2955 -0.000497353 10.0011 -0.000497378C9.70661 -0.000497404 9.4242 0.113755 9.21587 0.31716L3.98624 5.42945L5.55661 6.96459L8.88994 3.70604L8.88994 15.2051L11.1122 15.2051Z" fill="#5F6CFA"/>
</svg>
