<svg width="25" height="25" viewBox="0 0 25 25" fill="none" xmlns="http://www.w3.org/2000/svg">
<path fill-rule="evenodd" clip-rule="evenodd" d="M25 23.6202C25 24.3822 24.3821 25 23.6202 25H1.37979C0.617578 25 0 24.3822 0 23.6202V1.37978C0 0.617673 0.617578 0 1.37979 0H23.6202C24.3821 0 25 0.617673 25 1.37978V23.6202ZM7.01069 6.64567C8.55469 5.22917 11.3152 5.01817 12.5992 5.00267V5.00217C13.0262 4.99467 13.2917 5.01267 13.2917 5.01267C16.8697 5.02567 18.4712 6.19267 18.8697 6.55967H18.8777C20.1982 7.70567 20.9297 10.2392 20.4377 14.2602C20.0004 17.8107 17.5217 18.4353 16.6933 18.644C16.6132 18.6642 16.5486 18.6805 16.5027 18.6952C16.2762 18.7682 14.3097 19.2602 11.7422 19.0467L10.8097 20.1012C10.724 20.1926 10.6443 20.283 10.5683 20.3692C10.2004 20.786 9.92009 21.1037 9.48419 20.9657C9.05719 20.8332 9.08069 20.1872 9.08069 20.1872V18.5727C5.32819 17.5127 5.37519 13.6197 5.41419 11.5467C5.46119 9.46617 5.86219 7.78367 7.01069 6.64567ZM13.2292 6.14617C13.2292 6.14617 13.0077 6.13067 12.6432 6.13317H12.6422C11.5512 6.14117 9.20719 6.30017 7.90269 7.47967C6.93369 8.44067 6.60819 9.85967 6.56919 11.5942C6.56802 11.6541 6.56666 11.7159 6.56526 11.7794C6.52626 13.5552 6.45763 16.6796 9.53019 17.5292L9.51469 20.2087C9.50969 20.3547 9.53569 20.4612 9.62169 20.4822C9.68169 20.4952 9.77569 20.4692 9.85619 20.3807C10.3642 19.8757 11.9892 17.9147 11.9892 17.9147C14.1712 18.0552 15.9032 17.6282 16.0907 17.5682C16.1343 17.5543 16.1968 17.5397 16.2746 17.5217C16.9827 17.3571 18.9506 16.8997 19.3097 13.9667C19.7292 10.6097 19.1562 8.32567 18.0442 7.37267C17.7032 7.06567 16.2577 6.15417 13.2292 6.14617ZM12.8067 7.88166C12.831 7.87183 12.857 7.86691 12.8832 7.86717V7.86667C14.0627 7.86667 15.0657 8.26517 15.8572 9.03867C16.2633 9.45825 16.5799 9.95603 16.7876 10.5018C16.9954 11.0475 17.09 11.6297 17.0657 12.2132C17.0652 12.266 17.0438 12.3164 17.0062 12.3535C16.9687 12.3906 16.918 12.4113 16.8652 12.4112V12.4192C16.7532 12.4192 16.6647 12.3282 16.6647 12.2187C16.6512 10.9792 16.2972 10.0312 15.5707 9.32567C15.2149 8.98036 14.7942 8.70891 14.3329 8.52699C13.8717 8.34506 13.3789 8.25624 12.8832 8.26567C12.7737 8.26567 12.6827 8.17717 12.6827 8.06517C12.6828 8.03898 12.688 8.01305 12.6981 7.9889C12.7083 7.96474 12.7231 7.94283 12.7417 7.92442C12.7603 7.90602 12.7824 7.89148 12.8067 7.88166ZM9.83869 8.40617C9.96182 8.3334 10.1062 8.30499 10.2477 8.32567L10.2467 8.32467C10.3788 8.34977 10.4979 8.42079 10.5827 8.52517C10.9707 8.96795 11.3144 9.44775 11.6087 9.95767C11.8012 10.2992 11.6762 10.6452 11.4967 10.7912L11.1217 11.0932C10.9292 11.2392 10.9552 11.5257 10.9552 11.5257C10.9552 11.5257 11.5102 13.6322 13.5907 14.1637L13.5987 14.1587C13.5987 14.1587 13.8777 14.1847 14.0312 13.9972L14.3307 13.6197C14.4712 13.4322 14.8177 13.3202 15.1587 13.5052C15.6679 13.8015 16.1476 14.1459 16.5912 14.5337C16.8127 14.7187 16.8647 14.9922 16.7112 15.2812V15.2862C16.5476 15.5734 16.3382 15.832 16.0912 16.0517C15.8884 16.2358 15.6298 16.3467 15.3567 16.3667C15.2707 16.3667 15.1852 16.3537 15.0912 16.3252V16.3202C14.7707 16.2262 14.2367 15.9997 13.3567 15.5207C12.5867 15.0949 11.8743 14.5725 11.2367 13.9662L11.2157 13.9482L11.1977 13.9272L11.1692 13.9062L11.1512 13.8802C10.5467 13.2449 10.0267 12.5341 9.60419 11.7657C9.27619 11.2187 9.00769 10.6377 8.80219 10.0337L8.78919 10.0257C8.75269 9.90867 8.74219 9.78617 8.75769 9.66367C8.78369 9.45817 8.88269 9.24467 9.06519 9.03367C9.2848 8.78553 9.54232 8.57374 9.82819 8.40617H9.83869ZM13.2317 9.32067C12.9637 9.32067 12.9637 8.91967 13.2292 8.91967H13.2577C14.1252 8.97917 14.8047 9.27867 15.2917 9.81267C15.7762 10.3467 16.0232 11.0132 16.0052 11.8077C16.0048 11.8607 15.9835 11.9115 15.946 11.949C15.9085 11.9865 15.8577 12.0078 15.8047 12.0082L15.7967 11.9977C15.744 11.9974 15.6935 11.9766 15.6561 11.9395C15.6186 11.9025 15.5971 11.8523 15.5962 11.7997C15.6161 11.4885 15.5733 11.1765 15.4704 10.8822C15.3675 10.5879 15.2066 10.3172 14.9972 10.0862C14.7676 9.84885 14.4935 9.65909 14.1906 9.52774C13.8877 9.39639 13.5618 9.32603 13.2317 9.32067ZM13.5447 10.4067C13.2737 10.3987 13.2842 9.98967 13.5577 9.99767V9.99817H13.5657C14.4302 10.0447 14.9172 10.5477 14.9642 11.4407C14.9658 11.4674 14.9621 11.4942 14.9532 11.5194C14.9444 11.5447 14.9306 11.5679 14.9127 11.5878C14.8948 11.6077 14.8731 11.6238 14.8489 11.6352C14.8247 11.6466 14.7984 11.653 14.7717 11.6542H14.7637C14.7117 11.6539 14.6618 11.6333 14.6248 11.5968C14.5878 11.5602 14.5666 11.5107 14.5657 11.4587C14.5237 10.7737 14.2037 10.4407 13.5447 10.4067Z" fill="#4F46E0"/>
</svg>
