<svg width="12" height="12" viewBox="0 0 12 12" fill="none" xmlns="http://www.w3.org/2000/svg">
<path d="M5.69955 0.00174614C4.73655 0.0133711 2.66617 0.171621 1.50817 1.234C0.646796 2.0875 0.346046 3.34937 0.310796 4.90975C0.281546 6.4645 0.246296 9.38425 3.06067 10.1792V11.3901C3.06067 11.3901 3.04305 11.8746 3.3633 11.974C3.7578 12.0989 3.98242 11.7261 4.35742 11.3256L5.0568 10.5347C6.98242 10.6949 8.45729 10.3259 8.62717 10.2711C9.01792 10.1462 11.2188 9.865 11.5784 6.94487C11.9474 3.92912 11.3988 2.029 10.4084 1.1695H10.4024C10.1035 0.894246 8.90242 0.0189961 6.21892 0.00924614C6.21892 0.00924614 6.0198 -0.00425386 5.69955 0.00137114V0.00174614ZM5.73255 0.849621C6.00592 0.847746 6.17205 0.859371 6.17205 0.859371C8.44342 0.865371 9.52754 1.549 9.78329 1.77925C10.6173 2.494 11.047 4.207 10.7324 6.72475C10.4335 9.166 8.64854 9.3205 8.31817 9.42587C8.17754 9.47087 6.87855 9.79112 5.24205 9.68575C5.24205 9.68575 4.0233 11.1565 3.6423 11.5352C3.58192 11.6016 3.51142 11.6211 3.46642 11.6114C3.40192 11.5956 3.38242 11.5157 3.38617 11.4062L3.3978 9.39662C1.01092 8.73662 1.15155 6.24625 1.17705 4.94537C1.2063 3.6445 1.45042 2.58025 2.17717 1.8595C3.15555 0.974871 4.91355 0.855621 5.7318 0.849621H5.73255ZM5.91255 2.15012C5.8929 2.14992 5.87341 2.15362 5.8552 2.16098C5.83699 2.16835 5.82042 2.17926 5.80644 2.19306C5.79246 2.20686 5.78135 2.2233 5.77375 2.24142C5.76616 2.25953 5.76222 2.27898 5.76217 2.29862C5.76217 2.38262 5.83042 2.449 5.91255 2.449C6.28436 2.44193 6.65389 2.50853 6.99984 2.64498C7.34578 2.78143 7.66129 2.98501 7.92817 3.244C8.47305 3.77312 8.73855 4.48412 8.74867 5.41375C8.74867 5.49587 8.81504 5.56412 8.89904 5.56412V5.55812C8.93863 5.55822 8.97666 5.54267 9.00483 5.51485C9.03299 5.48703 9.04902 5.44921 9.04942 5.40962C9.06763 4.97205 8.99667 4.53535 8.84086 4.12606C8.68504 3.71677 8.44763 3.34343 8.14304 3.02875C7.54942 2.44862 6.79717 2.14975 5.91255 2.14975V2.15012ZM3.93592 2.494C3.82978 2.47849 3.72152 2.49979 3.62917 2.55437H3.6213C3.40689 2.68005 3.21375 2.83889 3.04905 3.025C2.91217 3.18325 2.83792 3.34337 2.81842 3.4975C2.8068 3.58937 2.81467 3.68125 2.84205 3.769L2.8518 3.775C3.00592 4.228 3.2073 4.66375 3.4533 5.074C3.77018 5.65035 4.16015 6.18339 4.61355 6.65987L4.62705 6.67937L4.64842 6.69512L4.66192 6.71087L4.67767 6.72437C5.15588 7.17909 5.6902 7.57089 6.26767 7.89025C6.92767 8.2495 7.32817 8.41937 7.56854 8.48987V8.49362C7.63904 8.515 7.70317 8.52475 7.76767 8.52475C7.97253 8.50974 8.16646 8.42657 8.31854 8.2885C8.5038 8.12375 8.66088 7.92981 8.78355 7.71437V7.71062C8.89867 7.49387 8.85967 7.28875 8.69354 7.15C8.36085 6.85918 8.00108 6.60088 7.61917 6.37862C7.36342 6.23987 7.10354 6.32387 6.99817 6.4645L6.77355 6.74762C6.65842 6.88825 6.44917 6.86875 6.44917 6.86875L6.44317 6.8725C4.8828 6.47387 4.46655 4.894 4.46655 4.894C4.46655 4.894 4.44705 4.67912 4.59142 4.56962L4.87267 4.34312C5.0073 4.23362 5.10105 3.97412 4.95667 3.718C4.73595 3.33555 4.47821 2.9757 4.18717 2.64362C4.12355 2.56533 4.03428 2.51207 3.93517 2.49325L3.93592 2.494ZM6.17205 2.9395C5.97292 2.9395 5.97292 3.24025 6.17392 3.24025C6.42153 3.24426 6.66591 3.29703 6.89311 3.39555C7.12031 3.49406 7.32587 3.63638 7.49804 3.81437C7.6551 3.98762 7.77579 4.19064 7.85296 4.41139C7.93013 4.63213 7.96221 4.86613 7.94729 5.0995C7.94798 5.13899 7.9641 5.17665 7.99221 5.2044C8.02031 5.23216 8.05817 5.24781 8.09767 5.248L8.10367 5.25587C8.14346 5.25558 8.18154 5.23964 8.20968 5.2115C8.23781 5.18336 8.25375 5.14529 8.25405 5.1055C8.26754 4.50962 8.08229 4.00975 7.71892 3.60925C7.35367 3.20875 6.84405 2.98412 6.19342 2.9395H6.17205ZM6.41842 3.748C6.21329 3.742 6.20542 4.04875 6.40867 4.05475C6.90292 4.08025 7.14292 4.33 7.17442 4.84375C7.17511 4.88274 7.19103 4.91992 7.21878 4.94733C7.24654 4.97473 7.28392 4.99018 7.32292 4.99037H7.32892C7.34897 4.98951 7.36865 4.98467 7.38681 4.97612C7.40497 4.96757 7.42125 4.95549 7.43469 4.94058C7.44813 4.92568 7.45846 4.90824 7.46509 4.8893C7.47172 4.87036 7.47451 4.85028 7.47329 4.83025C7.43805 4.1605 7.0728 3.78325 6.42442 3.74837H6.41842V3.748Z" fill="white"/>
</svg>
