<svg width="25" height="25" viewBox="0 0 25 25" fill="none" xmlns="http://www.w3.org/2000/svg">
<path fill-rule="evenodd" clip-rule="evenodd" d="M25 23.6202C25 24.3822 24.3821 25 23.6202 25H1.37979C0.617578 25 0 24.3822 0 23.6202V1.37978C0 0.617673 0.617578 0 1.37979 0H23.6202C24.3821 0 25 0.617673 25 1.37978V23.6202ZM14.974 12.8254C15.1327 12.8837 15.9849 13.3026 16.1588 13.3895H16.1582C16.1922 13.4065 16.224 13.4219 16.2535 13.4361C16.3745 13.4944 16.456 13.5337 16.4907 13.5919C16.5338 13.6642 16.5338 14.0113 16.3898 14.4161C16.2451 14.821 15.5521 15.1908 15.2196 15.2404C14.9209 15.2853 14.5429 15.304 14.1276 15.1716C13.8762 15.0922 13.5536 14.9855 13.1394 14.807C11.5172 14.1066 10.4204 12.5355 10.2099 12.2341C10.1948 12.2124 10.1842 12.1973 10.1784 12.1896L10.177 12.1877C10.085 12.0648 9.47083 11.2447 9.47083 10.3964C9.47083 9.59618 9.86421 9.17754 10.0445 8.98563C10.0565 8.97287 10.0676 8.96112 10.0775 8.95032C10.2362 8.77648 10.424 8.73332 10.5395 8.73332C10.655 8.73332 10.7705 8.73448 10.872 8.73915C10.8846 8.73984 10.8978 8.7398 10.9114 8.73976C11.0121 8.73945 11.1378 8.73906 11.2617 9.03665C11.312 9.15738 11.3867 9.33936 11.4646 9.52904C11.6107 9.88468 11.7678 10.2674 11.796 10.3241C11.8398 10.411 11.8689 10.5119 11.8106 10.6274C11.8019 10.6449 11.7938 10.6615 11.7861 10.6772C11.7429 10.766 11.7111 10.8311 11.6373 10.9173C11.6074 10.952 11.5766 10.9896 11.5458 11.027C11.487 11.0985 11.4285 11.1697 11.3772 11.2206C11.2903 11.307 11.2004 11.4009 11.3013 11.5742C11.4023 11.748 11.7505 12.3156 12.2656 12.7752C12.8172 13.2671 13.2971 13.4759 13.5421 13.5825C13.5912 13.6038 13.6308 13.621 13.6597 13.6356C13.833 13.722 13.9339 13.708 14.0354 13.5919C14.1363 13.4764 14.4683 13.0856 14.5838 12.9129C14.6998 12.7391 14.8153 12.7676 14.974 12.8254ZM12.9936 17.7079H12.9959C16.1739 17.7079 18.7604 15.1208 18.7616 11.9416C18.764 11.1839 18.6161 10.4333 18.3266 9.73309C18.037 9.0329 17.6115 8.39707 17.0746 7.8624C15.9861 6.77273 14.5383 6.1719 12.9983 6.1719C9.81733 6.1719 7.23083 8.7584 7.22967 11.9376C7.22809 13.023 7.53366 14.0868 8.11108 15.0059L8.24817 15.2241L7.66542 17.3521L9.84825 16.7792L10.0583 16.9041C10.9469 17.4304 11.9608 17.7081 12.9936 17.7079ZM15.6531 5.52545C16.4955 5.87471 17.2602 6.38769 17.9029 7.03465C18.5489 7.67787 19.0609 8.4428 19.4093 9.28517C19.7578 10.1275 19.9357 11.0306 19.9329 11.9422C19.9318 15.7677 16.8191 18.8798 12.9959 18.8798H12.993C11.8346 18.8798 10.6946 18.5894 9.67733 18.0351L6 19L6.98408 15.4049C6.37683 14.3531 6.05775 13.1596 6.05833 11.937C6.0595 8.11207 9.17217 4.99998 12.9953 4.99998C13.9073 4.99758 14.8106 5.17619 15.6531 5.52545Z" fill="#4F46E0"/>
</svg>
