<svg width="13" height="13" viewBox="0 0 13 13" fill="none" xmlns="http://www.w3.org/2000/svg">
<g clip-path="url(#clip0_1564_7965)">
<path fill-rule="evenodd" clip-rule="evenodd" d="M9.43313 7.79027C9.27171 7.70956 8.48033 7.32065 8.333 7.26648C8.18567 7.21286 8.07842 7.18631 7.97063 7.34773C7.86338 7.50806 7.55517 7.87098 7.46146 7.97823C7.36721 8.08602 7.2735 8.09902 7.11263 8.01886C6.95175 7.93761 6.43283 7.76806 5.81804 7.2199C5.33975 6.79306 5.01638 6.26602 4.92267 6.10461C4.82896 5.94373 4.91238 5.85652 4.99308 5.77636C5.06567 5.70431 5.15396 5.5884 5.23467 5.49469C5.31537 5.40044 5.34192 5.33327 5.39554 5.22548C5.44971 5.11823 5.42263 5.02452 5.382 4.94381C5.34192 4.86311 5.02017 4.07065 4.88583 3.74836C4.75529 3.43473 4.62258 3.47752 4.524 3.47211C4.42975 3.46777 4.3225 3.46669 4.21525 3.46669C4.108 3.46669 3.93358 3.50677 3.78625 3.66819C3.63838 3.82906 3.22292 4.21852 3.22292 5.01098C3.22292 5.8029 3.79925 6.56827 3.87996 6.67606C3.96067 6.78331 5.01475 8.4094 6.62946 9.10652C7.01404 9.27227 7.31358 9.3714 7.54704 9.44506C7.93271 9.56802 8.28371 9.55069 8.56104 9.50898C8.86979 9.46294 9.51329 9.11952 9.64763 8.74361C9.78142 8.36769 9.78142 8.0454 9.74133 7.97823C9.70125 7.91106 9.594 7.87098 9.43258 7.79027H9.43313ZM6.49621 11.8002H6.49404C5.53498 11.8004 4.59353 11.5426 3.76837 11.0538L3.57338 10.9379L1.54646 11.4698L2.08758 9.49381L1.96029 9.29123C1.42412 8.43775 1.14037 7.44999 1.14183 6.44206C1.14292 3.48998 3.54467 1.08823 6.49837 1.08823C7.92838 1.08823 9.27279 1.64615 10.2835 2.65798C10.7821 3.15446 11.1772 3.74487 11.4461 4.39505C11.715 5.04523 11.8523 5.74227 11.85 6.44586C11.849 9.39794 9.44721 11.8002 6.49621 11.8002ZM11.0527 1.88936C10.4559 1.28861 9.74579 0.812271 8.96355 0.487956C8.1813 0.16364 7.34247 -0.00220797 6.49567 2.21962e-05C2.94558 2.21962e-05 0.05525 2.88981 0.0541667 6.44152C0.053625 7.57686 0.349917 8.68511 0.913792 9.66173L0 13L3.41467 12.1041C4.35927 12.6188 5.4178 12.8884 6.4935 12.8884H6.49621C10.0463 12.8884 12.9366 9.99865 12.9377 6.4464C12.9403 5.59992 12.7751 4.76133 12.4515 3.97912C12.128 3.19692 11.6525 2.48664 11.0527 1.88936Z" fill="white"/>
</g>
<defs>
<clipPath id="clip0_1564_7965">
<rect width="13" height="13" fill="white"/>
</clipPath>
</defs>
</svg>
